<svg xmlns="http://www.w3.org/2000/svg" xmlns:xlink="http://www.w3.org/1999/xlink" width="1920" zoomAndPan="magnify" viewBox="0 0 1440 809.999993" height="1080" preserveAspectRatio="xMidYMid meet" version="1.0"><defs><g/><clipPath id="3f50f5529a"><path d="M 299.980469 244.078125 L 875.980469 244.078125 L 875.980469 565.828125 L 299.980469 565.828125 Z M 299.980469 244.078125 " clip-rule="nonzero"/></clipPath></defs><g fill="#3b5abc" fill-opacity="1"><g transform="translate(396.005044, 557.620072)"><g><path d="M 9.75 -4.171875 C 9.75 -3.441406 9.613281 -2.800781 9.34375 -2.25 C 9.070312 -1.695312 8.703125 -1.234375 8.234375 -0.859375 C 7.773438 -0.492188 7.234375 -0.21875 6.609375 -0.03125 C 5.984375 0.15625 5.316406 0.25 4.609375 0.25 C 4.128906 0.25 3.679688 0.207031 3.265625 0.125 C 2.859375 0.0507812 2.492188 -0.0390625 2.171875 -0.15625 C 1.859375 -0.269531 1.597656 -0.382812 1.390625 -0.5 C 1.179688 -0.625 1.03125 -0.734375 0.9375 -0.828125 C 0.84375 -0.921875 0.773438 -1.054688 0.734375 -1.234375 C 0.691406 -1.410156 0.671875 -1.660156 0.671875 -1.984375 C 0.671875 -2.210938 0.675781 -2.398438 0.6875 -2.546875 C 0.707031 -2.691406 0.734375 -2.8125 0.765625 -2.90625 C 0.796875 -3 0.835938 -3.066406 0.890625 -3.109375 C 0.953125 -3.148438 1.015625 -3.171875 1.078125 -3.171875 C 1.179688 -3.171875 1.320312 -3.109375 1.5 -2.984375 C 1.6875 -2.867188 1.921875 -2.738281 2.203125 -2.59375 C 2.492188 -2.457031 2.835938 -2.328125 3.234375 -2.203125 C 3.628906 -2.085938 4.09375 -2.03125 4.625 -2.03125 C 4.96875 -2.03125 5.273438 -2.070312 5.546875 -2.15625 C 5.816406 -2.238281 6.046875 -2.351562 6.234375 -2.5 C 6.421875 -2.65625 6.566406 -2.84375 6.671875 -3.0625 C 6.773438 -3.28125 6.828125 -3.523438 6.828125 -3.796875 C 6.828125 -4.117188 6.738281 -4.390625 6.5625 -4.609375 C 6.394531 -4.835938 6.171875 -5.039062 5.890625 -5.21875 C 5.617188 -5.394531 5.304688 -5.554688 4.953125 -5.703125 C 4.597656 -5.859375 4.234375 -6.019531 3.859375 -6.1875 C 3.492188 -6.363281 3.132812 -6.5625 2.78125 -6.78125 C 2.425781 -7 2.109375 -7.257812 1.828125 -7.5625 C 1.554688 -7.875 1.332031 -8.234375 1.15625 -8.640625 C 0.988281 -9.054688 0.90625 -9.554688 0.90625 -10.140625 C 0.90625 -10.804688 1.03125 -11.390625 1.28125 -11.890625 C 1.53125 -12.398438 1.863281 -12.820312 2.28125 -13.15625 C 2.695312 -13.488281 3.191406 -13.734375 3.765625 -13.890625 C 4.335938 -14.054688 4.941406 -14.140625 5.578125 -14.140625 C 5.898438 -14.140625 6.226562 -14.113281 6.5625 -14.0625 C 6.894531 -14.019531 7.203125 -13.953125 7.484375 -13.859375 C 7.773438 -13.773438 8.03125 -13.679688 8.25 -13.578125 C 8.46875 -13.472656 8.613281 -13.382812 8.6875 -13.3125 C 8.757812 -13.238281 8.804688 -13.175781 8.828125 -13.125 C 8.859375 -13.070312 8.878906 -13.003906 8.890625 -12.921875 C 8.910156 -12.847656 8.925781 -12.742188 8.9375 -12.609375 C 8.945312 -12.484375 8.953125 -12.332031 8.953125 -12.15625 C 8.953125 -11.945312 8.945312 -11.769531 8.9375 -11.625 C 8.925781 -11.476562 8.90625 -11.359375 8.875 -11.265625 C 8.851562 -11.171875 8.816406 -11.101562 8.765625 -11.0625 C 8.722656 -11.019531 8.660156 -11 8.578125 -11 C 8.503906 -11 8.378906 -11.046875 8.203125 -11.140625 C 8.035156 -11.242188 7.828125 -11.351562 7.578125 -11.46875 C 7.328125 -11.59375 7.035156 -11.703125 6.703125 -11.796875 C 6.367188 -11.898438 6.007812 -11.953125 5.625 -11.953125 C 5.3125 -11.953125 5.039062 -11.910156 4.8125 -11.828125 C 4.582031 -11.753906 4.390625 -11.648438 4.234375 -11.515625 C 4.078125 -11.390625 3.960938 -11.234375 3.890625 -11.046875 C 3.816406 -10.859375 3.78125 -10.660156 3.78125 -10.453125 C 3.78125 -10.140625 3.863281 -9.867188 4.03125 -9.640625 C 4.195312 -9.421875 4.421875 -9.222656 4.703125 -9.046875 C 4.992188 -8.867188 5.316406 -8.703125 5.671875 -8.546875 C 6.023438 -8.398438 6.390625 -8.238281 6.765625 -8.0625 C 7.140625 -7.894531 7.503906 -7.703125 7.859375 -7.484375 C 8.222656 -7.265625 8.539062 -7 8.8125 -6.6875 C 9.09375 -6.382812 9.316406 -6.023438 9.484375 -5.609375 C 9.660156 -5.203125 9.75 -4.722656 9.75 -4.171875 Z M 9.75 -4.171875 "/></g></g></g><g fill="#3b5abc" fill-opacity="1"><g transform="translate(406.401634, 557.620072)"><g><path d="M 16.59375 -0.359375 C 16.59375 -0.296875 16.570312 -0.234375 16.53125 -0.171875 C 16.488281 -0.117188 16.414062 -0.0703125 16.3125 -0.03125 C 16.21875 0 16.082031 0.0195312 15.90625 0.03125 C 15.738281 0.0507812 15.519531 0.0625 15.25 0.0625 C 14.976562 0.0625 14.753906 0.0507812 14.578125 0.03125 C 14.410156 0.0195312 14.273438 0 14.171875 -0.03125 C 14.066406 -0.0703125 13.992188 -0.117188 13.953125 -0.171875 C 13.921875 -0.234375 13.90625 -0.296875 13.90625 -0.359375 L 13.90625 -6.046875 C 13.90625 -6.367188 13.875 -6.660156 13.8125 -6.921875 C 13.75 -7.191406 13.65625 -7.421875 13.53125 -7.609375 C 13.40625 -7.796875 13.242188 -7.941406 13.046875 -8.046875 C 12.859375 -8.148438 12.632812 -8.203125 12.375 -8.203125 C 12.050781 -8.203125 11.722656 -8.078125 11.390625 -7.828125 C 11.066406 -7.578125 10.710938 -7.210938 10.328125 -6.734375 L 10.328125 -0.359375 C 10.328125 -0.296875 10.300781 -0.234375 10.25 -0.171875 C 10.207031 -0.117188 10.132812 -0.0703125 10.03125 -0.03125 C 9.9375 0 9.800781 0.0195312 9.625 0.03125 C 9.457031 0.0507812 9.242188 0.0625 8.984375 0.0625 C 8.710938 0.0625 8.488281 0.0507812 8.3125 0.03125 C 8.144531 0.0195312 8.007812 0 7.90625 -0.03125 C 7.800781 -0.0703125 7.726562 -0.117188 7.6875 -0.171875 C 7.644531 -0.234375 7.625 -0.296875 7.625 -0.359375 L 7.625 -6.046875 C 7.625 -6.367188 7.59375 -6.660156 7.53125 -6.921875 C 7.46875 -7.191406 7.375 -7.421875 7.25 -7.609375 C 7.132812 -7.796875 6.976562 -7.941406 6.78125 -8.046875 C 6.59375 -8.148438 6.367188 -8.203125 6.109375 -8.203125 C 5.785156 -8.203125 5.457031 -8.078125 5.125 -7.828125 C 4.789062 -7.578125 4.4375 -7.210938 4.0625 -6.734375 L 4.0625 -0.359375 C 4.0625 -0.296875 4.039062 -0.234375 4 -0.171875 C 3.957031 -0.117188 3.882812 -0.0703125 3.78125 -0.03125 C 3.675781 0 3.535156 0.0195312 3.359375 0.03125 C 3.191406 0.0507812 2.972656 0.0625 2.703125 0.0625 C 2.441406 0.0625 2.222656 0.0507812 2.046875 0.03125 C 1.878906 0.0195312 1.742188 0 1.640625 -0.03125 C 1.535156 -0.0703125 1.460938 -0.117188 1.421875 -0.171875 C 1.378906 -0.234375 1.359375 -0.296875 1.359375 -0.359375 L 1.359375 -9.953125 C 1.359375 -10.023438 1.375 -10.085938 1.40625 -10.140625 C 1.445312 -10.191406 1.507812 -10.234375 1.59375 -10.265625 C 1.6875 -10.304688 1.804688 -10.332031 1.953125 -10.34375 C 2.109375 -10.363281 2.296875 -10.375 2.515625 -10.375 C 2.742188 -10.375 2.929688 -10.363281 3.078125 -10.34375 C 3.234375 -10.332031 3.351562 -10.304688 3.4375 -10.265625 C 3.519531 -10.234375 3.578125 -10.191406 3.609375 -10.140625 C 3.640625 -10.085938 3.65625 -10.023438 3.65625 -9.953125 L 3.65625 -8.84375 C 4.1875 -9.414062 4.710938 -9.84375 5.234375 -10.125 C 5.765625 -10.414062 6.316406 -10.5625 6.890625 -10.5625 C 7.285156 -10.5625 7.640625 -10.519531 7.953125 -10.4375 C 8.273438 -10.351562 8.554688 -10.234375 8.796875 -10.078125 C 9.046875 -9.921875 9.257812 -9.734375 9.4375 -9.515625 C 9.625 -9.304688 9.773438 -9.070312 9.890625 -8.8125 C 10.179688 -9.113281 10.460938 -9.375 10.734375 -9.59375 C 11.015625 -9.820312 11.285156 -10.003906 11.546875 -10.140625 C 11.816406 -10.285156 12.085938 -10.390625 12.359375 -10.453125 C 12.628906 -10.523438 12.90625 -10.5625 13.1875 -10.5625 C 13.820312 -10.5625 14.359375 -10.453125 14.796875 -10.234375 C 15.234375 -10.023438 15.582031 -9.734375 15.84375 -9.359375 C 16.113281 -8.992188 16.304688 -8.5625 16.421875 -8.0625 C 16.535156 -7.570312 16.59375 -7.050781 16.59375 -6.5 Z M 16.59375 -0.359375 "/></g></g></g><g fill="#3b5abc" fill-opacity="1"><g transform="translate(424.29494, 557.620072)"><g><path d="M 9.515625 -0.328125 C 9.515625 -0.234375 9.476562 -0.15625 9.40625 -0.09375 C 9.332031 -0.0390625 9.21875 -0.00390625 9.0625 0.015625 C 8.914062 0.046875 8.691406 0.0625 8.390625 0.0625 C 8.066406 0.0625 7.832031 0.046875 7.6875 0.015625 C 7.539062 -0.00390625 7.4375 -0.0390625 7.375 -0.09375 C 7.3125 -0.15625 7.28125 -0.234375 7.28125 -0.328125 L 7.28125 -1.09375 C 6.882812 -0.675781 6.429688 -0.347656 5.921875 -0.109375 C 5.421875 0.128906 4.863281 0.25 4.25 0.25 C 3.738281 0.25 3.269531 0.179688 2.84375 0.046875 C 2.425781 -0.0859375 2.0625 -0.285156 1.75 -0.546875 C 1.4375 -0.804688 1.191406 -1.128906 1.015625 -1.515625 C 0.847656 -1.898438 0.765625 -2.351562 0.765625 -2.875 C 0.765625 -3.425781 0.875 -3.90625 1.09375 -4.3125 C 1.3125 -4.726562 1.632812 -5.070312 2.0625 -5.34375 C 2.5 -5.613281 3.039062 -5.8125 3.6875 -5.9375 C 4.332031 -6.070312 5.082031 -6.140625 5.9375 -6.140625 L 6.859375 -6.140625 L 6.859375 -6.71875 C 6.859375 -7.019531 6.828125 -7.28125 6.765625 -7.5 C 6.710938 -7.726562 6.613281 -7.914062 6.46875 -8.0625 C 6.332031 -8.21875 6.144531 -8.332031 5.90625 -8.40625 C 5.675781 -8.476562 5.390625 -8.515625 5.046875 -8.515625 C 4.597656 -8.515625 4.195312 -8.460938 3.84375 -8.359375 C 3.488281 -8.253906 3.175781 -8.140625 2.90625 -8.015625 C 2.632812 -7.898438 2.40625 -7.789062 2.21875 -7.6875 C 2.03125 -7.59375 1.878906 -7.546875 1.765625 -7.546875 C 1.691406 -7.546875 1.625 -7.566406 1.5625 -7.609375 C 1.5 -7.660156 1.445312 -7.734375 1.40625 -7.828125 C 1.375 -7.921875 1.347656 -8.035156 1.328125 -8.171875 C 1.304688 -8.304688 1.296875 -8.457031 1.296875 -8.625 C 1.296875 -8.84375 1.3125 -9.015625 1.34375 -9.140625 C 1.375 -9.273438 1.441406 -9.394531 1.546875 -9.5 C 1.648438 -9.601562 1.828125 -9.71875 2.078125 -9.84375 C 2.328125 -9.96875 2.617188 -10.082031 2.953125 -10.1875 C 3.285156 -10.300781 3.648438 -10.390625 4.046875 -10.453125 C 4.453125 -10.523438 4.863281 -10.5625 5.28125 -10.5625 C 6.03125 -10.5625 6.671875 -10.488281 7.203125 -10.34375 C 7.742188 -10.195312 8.1875 -9.96875 8.53125 -9.65625 C 8.875 -9.351562 9.125 -8.960938 9.28125 -8.484375 C 9.4375 -8.003906 9.515625 -7.4375 9.515625 -6.78125 Z M 6.859375 -4.4375 L 5.828125 -4.4375 C 5.390625 -4.4375 5.015625 -4.40625 4.703125 -4.34375 C 4.398438 -4.28125 4.148438 -4.179688 3.953125 -4.046875 C 3.765625 -3.921875 3.625 -3.765625 3.53125 -3.578125 C 3.445312 -3.398438 3.40625 -3.191406 3.40625 -2.953125 C 3.40625 -2.554688 3.53125 -2.242188 3.78125 -2.015625 C 4.039062 -1.785156 4.394531 -1.671875 4.84375 -1.671875 C 5.226562 -1.671875 5.578125 -1.765625 5.890625 -1.953125 C 6.210938 -2.148438 6.535156 -2.429688 6.859375 -2.796875 Z M 6.859375 -4.4375 "/></g></g></g><g fill="#3b5abc" fill-opacity="1"><g transform="translate(435.153368, 557.620072)"><g><path d="M 7.515625 -9.0625 C 7.515625 -8.800781 7.503906 -8.585938 7.484375 -8.421875 C 7.472656 -8.253906 7.453125 -8.125 7.421875 -8.03125 C 7.390625 -7.9375 7.347656 -7.867188 7.296875 -7.828125 C 7.253906 -7.796875 7.203125 -7.78125 7.140625 -7.78125 C 7.078125 -7.78125 7.007812 -7.789062 6.9375 -7.8125 C 6.863281 -7.84375 6.78125 -7.875 6.6875 -7.90625 C 6.601562 -7.9375 6.503906 -7.960938 6.390625 -7.984375 C 6.285156 -8.015625 6.171875 -8.03125 6.046875 -8.03125 C 5.898438 -8.03125 5.75 -8 5.59375 -7.9375 C 5.445312 -7.875 5.289062 -7.773438 5.125 -7.640625 C 4.96875 -7.515625 4.800781 -7.34375 4.625 -7.125 C 4.445312 -6.914062 4.257812 -6.65625 4.0625 -6.34375 L 4.0625 -0.359375 C 4.0625 -0.296875 4.039062 -0.234375 4 -0.171875 C 3.957031 -0.117188 3.882812 -0.0703125 3.78125 -0.03125 C 3.675781 0 3.535156 0.0195312 3.359375 0.03125 C 3.191406 0.0507812 2.972656 0.0625 2.703125 0.0625 C 2.441406 0.0625 2.222656 0.0507812 2.046875 0.03125 C 1.878906 0.0195312 1.742188 0 1.640625 -0.03125 C 1.535156 -0.0703125 1.460938 -0.117188 1.421875 -0.171875 C 1.378906 -0.234375 1.359375 -0.296875 1.359375 -0.359375 L 1.359375 -9.953125 C 1.359375 -10.023438 1.375 -10.085938 1.40625 -10.140625 C 1.445312 -10.191406 1.507812 -10.234375 1.59375 -10.265625 C 1.6875 -10.304688 1.804688 -10.332031 1.953125 -10.34375 C 2.109375 -10.363281 2.296875 -10.375 2.515625 -10.375 C 2.742188 -10.375 2.929688 -10.363281 3.078125 -10.34375 C 3.234375 -10.332031 3.351562 -10.304688 3.4375 -10.265625 C 3.519531 -10.234375 3.578125 -10.191406 3.609375 -10.140625 C 3.640625 -10.085938 3.65625 -10.023438 3.65625 -9.953125 L 3.65625 -8.75 C 3.914062 -9.113281 4.15625 -9.410156 4.375 -9.640625 C 4.59375 -9.867188 4.800781 -10.050781 5 -10.1875 C 5.207031 -10.332031 5.410156 -10.429688 5.609375 -10.484375 C 5.804688 -10.535156 6.003906 -10.5625 6.203125 -10.5625 C 6.296875 -10.5625 6.394531 -10.554688 6.5 -10.546875 C 6.613281 -10.535156 6.726562 -10.515625 6.84375 -10.484375 C 6.957031 -10.460938 7.054688 -10.4375 7.140625 -10.40625 C 7.222656 -10.375 7.285156 -10.335938 7.328125 -10.296875 C 7.367188 -10.265625 7.394531 -10.226562 7.40625 -10.1875 C 7.425781 -10.144531 7.441406 -10.082031 7.453125 -10 C 7.472656 -9.925781 7.488281 -9.8125 7.5 -9.65625 C 7.507812 -9.507812 7.515625 -9.3125 7.515625 -9.0625 Z M 7.515625 -9.0625 "/></g></g></g><g fill="#3b5abc" fill-opacity="1"><g transform="translate(442.972292, 557.620072)"><g><path d="M 7.03125 -1.3125 C 7.03125 -1 7.007812 -0.753906 6.96875 -0.578125 C 6.925781 -0.410156 6.875 -0.289062 6.8125 -0.21875 C 6.75 -0.15625 6.65625 -0.0976562 6.53125 -0.046875 C 6.40625 0.00390625 6.253906 0.0507812 6.078125 0.09375 C 5.910156 0.132812 5.726562 0.164062 5.53125 0.1875 C 5.34375 0.207031 5.144531 0.21875 4.9375 0.21875 C 4.40625 0.21875 3.941406 0.148438 3.546875 0.015625 C 3.148438 -0.117188 2.820312 -0.328125 2.5625 -0.609375 C 2.3125 -0.898438 2.125 -1.257812 2 -1.6875 C 1.875 -2.113281 1.8125 -2.625 1.8125 -3.21875 L 1.8125 -8.125 L 0.671875 -8.125 C 0.535156 -8.125 0.429688 -8.207031 0.359375 -8.375 C 0.285156 -8.539062 0.25 -8.820312 0.25 -9.21875 C 0.25 -9.425781 0.253906 -9.597656 0.265625 -9.734375 C 0.285156 -9.878906 0.3125 -9.992188 0.34375 -10.078125 C 0.382812 -10.160156 0.429688 -10.21875 0.484375 -10.25 C 0.535156 -10.289062 0.597656 -10.3125 0.671875 -10.3125 L 1.8125 -10.3125 L 1.8125 -12.453125 C 1.8125 -12.523438 1.832031 -12.585938 1.875 -12.640625 C 1.914062 -12.703125 1.988281 -12.75 2.09375 -12.78125 C 2.195312 -12.820312 2.332031 -12.851562 2.5 -12.875 C 2.675781 -12.894531 2.894531 -12.90625 3.15625 -12.90625 C 3.425781 -12.90625 3.644531 -12.894531 3.8125 -12.875 C 3.988281 -12.851562 4.128906 -12.820312 4.234375 -12.78125 C 4.335938 -12.75 4.410156 -12.703125 4.453125 -12.640625 C 4.492188 -12.585938 4.515625 -12.523438 4.515625 -12.453125 L 4.515625 -10.3125 L 6.59375 -10.3125 C 6.664062 -10.3125 6.726562 -10.289062 6.78125 -10.25 C 6.832031 -10.21875 6.875 -10.160156 6.90625 -10.078125 C 6.945312 -9.992188 6.976562 -9.878906 7 -9.734375 C 7.019531 -9.597656 7.03125 -9.425781 7.03125 -9.21875 C 7.03125 -8.820312 6.992188 -8.539062 6.921875 -8.375 C 6.847656 -8.207031 6.742188 -8.125 6.609375 -8.125 L 4.515625 -8.125 L 4.515625 -3.625 C 4.515625 -3.101562 4.59375 -2.707031 4.75 -2.4375 C 4.914062 -2.175781 5.210938 -2.046875 5.640625 -2.046875 C 5.785156 -2.046875 5.914062 -2.054688 6.03125 -2.078125 C 6.144531 -2.109375 6.242188 -2.140625 6.328125 -2.171875 C 6.421875 -2.203125 6.5 -2.226562 6.5625 -2.25 C 6.625 -2.28125 6.675781 -2.296875 6.71875 -2.296875 C 6.769531 -2.296875 6.8125 -2.28125 6.84375 -2.25 C 6.882812 -2.226562 6.914062 -2.179688 6.9375 -2.109375 C 6.957031 -2.035156 6.976562 -1.929688 7 -1.796875 C 7.019531 -1.671875 7.03125 -1.507812 7.03125 -1.3125 Z M 7.03125 -1.3125 "/></g></g></g><g fill="#3b5abc" fill-opacity="1"><g transform="translate(450.59789, 557.620072)"><g/></g></g><g fill="#3b5abc" fill-opacity="1"><g transform="translate(455.570646, 557.620072)"><g><path d="M 9.75 -4.171875 C 9.75 -3.441406 9.613281 -2.800781 9.34375 -2.25 C 9.070312 -1.695312 8.703125 -1.234375 8.234375 -0.859375 C 7.773438 -0.492188 7.234375 -0.21875 6.609375 -0.03125 C 5.984375 0.15625 5.316406 0.25 4.609375 0.25 C 4.128906 0.25 3.679688 0.207031 3.265625 0.125 C 2.859375 0.0507812 2.492188 -0.0390625 2.171875 -0.15625 C 1.859375 -0.269531 1.597656 -0.382812 1.390625 -0.5 C 1.179688 -0.625 1.03125 -0.734375 0.9375 -0.828125 C 0.84375 -0.921875 0.773438 -1.054688 0.734375 -1.234375 C 0.691406 -1.410156 0.671875 -1.660156 0.671875 -1.984375 C 0.671875 -2.210938 0.675781 -2.398438 0.6875 -2.546875 C 0.707031 -2.691406 0.734375 -2.8125 0.765625 -2.90625 C 0.796875 -3 0.835938 -3.066406 0.890625 -3.109375 C 0.953125 -3.148438 1.015625 -3.171875 1.078125 -3.171875 C 1.179688 -3.171875 1.320312 -3.109375 1.5 -2.984375 C 1.6875 -2.867188 1.921875 -2.738281 2.203125 -2.59375 C 2.492188 -2.457031 2.835938 -2.328125 3.234375 -2.203125 C 3.628906 -2.085938 4.09375 -2.03125 4.625 -2.03125 C 4.96875 -2.03125 5.273438 -2.070312 5.546875 -2.15625 C 5.816406 -2.238281 6.046875 -2.351562 6.234375 -2.5 C 6.421875 -2.65625 6.566406 -2.84375 6.671875 -3.0625 C 6.773438 -3.28125 6.828125 -3.523438 6.828125 -3.796875 C 6.828125 -4.117188 6.738281 -4.390625 6.5625 -4.609375 C 6.394531 -4.835938 6.171875 -5.039062 5.890625 -5.21875 C 5.617188 -5.394531 5.304688 -5.554688 4.953125 -5.703125 C 4.597656 -5.859375 4.234375 -6.019531 3.859375 -6.1875 C 3.492188 -6.363281 3.132812 -6.5625 2.78125 -6.78125 C 2.425781 -7 2.109375 -7.257812 1.828125 -7.5625 C 1.554688 -7.875 1.332031 -8.234375 1.15625 -8.640625 C 0.988281 -9.054688 0.90625 -9.554688 0.90625 -10.140625 C 0.90625 -10.804688 1.03125 -11.390625 1.28125 -11.890625 C 1.53125 -12.398438 1.863281 -12.820312 2.28125 -13.15625 C 2.695312 -13.488281 3.191406 -13.734375 3.765625 -13.890625 C 4.335938 -14.054688 4.941406 -14.140625 5.578125 -14.140625 C 5.898438 -14.140625 6.226562 -14.113281 6.5625 -14.0625 C 6.894531 -14.019531 7.203125 -13.953125 7.484375 -13.859375 C 7.773438 -13.773438 8.03125 -13.679688 8.25 -13.578125 C 8.46875 -13.472656 8.613281 -13.382812 8.6875 -13.3125 C 8.757812 -13.238281 8.804688 -13.175781 8.828125 -13.125 C 8.859375 -13.070312 8.878906 -13.003906 8.890625 -12.921875 C 8.910156 -12.847656 8.925781 -12.742188 8.9375 -12.609375 C 8.945312 -12.484375 8.953125 -12.332031 8.953125 -12.15625 C 8.953125 -11.945312 8.945312 -11.769531 8.9375 -11.625 C 8.925781 -11.476562 8.90625 -11.359375 8.875 -11.265625 C 8.851562 -11.171875 8.816406 -11.101562 8.765625 -11.0625 C 8.722656 -11.019531 8.660156 -11 8.578125 -11 C 8.503906 -11 8.378906 -11.046875 8.203125 -11.140625 C 8.035156 -11.242188 7.828125 -11.351562 7.578125 -11.46875 C 7.328125 -11.59375 7.035156 -11.703125 6.703125 -11.796875 C 6.367188 -11.898438 6.007812 -11.953125 5.625 -11.953125 C 5.3125 -11.953125 5.039062 -11.910156 4.8125 -11.828125 C 4.582031 -11.753906 4.390625 -11.648438 4.234375 -11.515625 C 4.078125 -11.390625 3.960938 -11.234375 3.890625 -11.046875 C 3.816406 -10.859375 3.78125 -10.660156 3.78125 -10.453125 C 3.78125 -10.140625 3.863281 -9.867188 4.03125 -9.640625 C 4.195312 -9.421875 4.421875 -9.222656 4.703125 -9.046875 C 4.992188 -8.867188 5.316406 -8.703125 5.671875 -8.546875 C 6.023438 -8.398438 6.390625 -8.238281 6.765625 -8.0625 C 7.140625 -7.894531 7.503906 -7.703125 7.859375 -7.484375 C 8.222656 -7.265625 8.539062 -7 8.8125 -6.6875 C 9.09375 -6.382812 9.316406 -6.023438 9.484375 -5.609375 C 9.660156 -5.203125 9.75 -4.722656 9.75 -4.171875 Z M 9.75 -4.171875 "/></g></g></g><g fill="#3b5abc" fill-opacity="1"><g transform="translate(465.967236, 557.620072)"><g><path d="M 11.046875 -5.25 C 11.046875 -4.4375 10.9375 -3.691406 10.71875 -3.015625 C 10.507812 -2.347656 10.1875 -1.769531 9.75 -1.28125 C 9.3125 -0.789062 8.757812 -0.410156 8.09375 -0.140625 C 7.4375 0.117188 6.671875 0.25 5.796875 0.25 C 4.941406 0.25 4.195312 0.128906 3.5625 -0.109375 C 2.9375 -0.347656 2.414062 -0.691406 2 -1.140625 C 1.582031 -1.585938 1.273438 -2.140625 1.078125 -2.796875 C 0.878906 -3.460938 0.78125 -4.21875 0.78125 -5.0625 C 0.78125 -5.875 0.882812 -6.617188 1.09375 -7.296875 C 1.3125 -7.972656 1.640625 -8.550781 2.078125 -9.03125 C 2.515625 -9.519531 3.0625 -9.894531 3.71875 -10.15625 C 4.375 -10.425781 5.144531 -10.5625 6.03125 -10.5625 C 6.882812 -10.5625 7.625 -10.441406 8.25 -10.203125 C 8.882812 -9.972656 9.40625 -9.632812 9.8125 -9.1875 C 10.226562 -8.738281 10.535156 -8.179688 10.734375 -7.515625 C 10.941406 -6.859375 11.046875 -6.101562 11.046875 -5.25 Z M 8.265625 -5.140625 C 8.265625 -5.617188 8.222656 -6.054688 8.140625 -6.453125 C 8.066406 -6.847656 7.941406 -7.191406 7.765625 -7.484375 C 7.585938 -7.773438 7.347656 -8.003906 7.046875 -8.171875 C 6.753906 -8.335938 6.382812 -8.421875 5.9375 -8.421875 C 5.53125 -8.421875 5.175781 -8.347656 4.875 -8.203125 C 4.570312 -8.054688 4.320312 -7.84375 4.125 -7.5625 C 3.9375 -7.28125 3.796875 -6.9375 3.703125 -6.53125 C 3.609375 -6.132812 3.5625 -5.679688 3.5625 -5.171875 C 3.5625 -4.703125 3.597656 -4.269531 3.671875 -3.875 C 3.753906 -3.476562 3.878906 -3.128906 4.046875 -2.828125 C 4.222656 -2.535156 4.460938 -2.304688 4.765625 -2.140625 C 5.066406 -1.984375 5.441406 -1.90625 5.890625 -1.90625 C 6.296875 -1.90625 6.648438 -1.976562 6.953125 -2.125 C 7.253906 -2.28125 7.5 -2.492188 7.6875 -2.765625 C 7.882812 -3.046875 8.03125 -3.382812 8.125 -3.78125 C 8.21875 -4.1875 8.265625 -4.640625 8.265625 -5.140625 Z M 8.265625 -5.140625 "/></g></g></g><g fill="#3b5abc" fill-opacity="1"><g transform="translate(477.79229, 557.620072)"><g><path d="M 4.0625 -0.359375 C 4.0625 -0.296875 4.039062 -0.234375 4 -0.171875 C 3.957031 -0.117188 3.882812 -0.0703125 3.78125 -0.03125 C 3.675781 0 3.535156 0.0195312 3.359375 0.03125 C 3.191406 0.0507812 2.972656 0.0625 2.703125 0.0625 C 2.441406 0.0625 2.222656 0.0507812 2.046875 0.03125 C 1.878906 0.0195312 1.742188 0 1.640625 -0.03125 C 1.535156 -0.0703125 1.460938 -0.117188 1.421875 -0.171875 C 1.378906 -0.234375 1.359375 -0.296875 1.359375 -0.359375 L 1.359375 -14.484375 C 1.359375 -14.554688 1.378906 -14.617188 1.421875 -14.671875 C 1.460938 -14.734375 1.535156 -14.785156 1.640625 -14.828125 C 1.742188 -14.867188 1.878906 -14.898438 2.046875 -14.921875 C 2.222656 -14.941406 2.441406 -14.953125 2.703125 -14.953125 C 2.972656 -14.953125 3.191406 -14.941406 3.359375 -14.921875 C 3.535156 -14.898438 3.675781 -14.867188 3.78125 -14.828125 C 3.882812 -14.785156 3.957031 -14.734375 4 -14.671875 C 4.039062 -14.617188 4.0625 -14.554688 4.0625 -14.484375 Z M 4.0625 -0.359375 "/></g></g></g><g fill="#3b5abc" fill-opacity="1"><g transform="translate(483.194656, 557.620072)"><g><path d="M 10.4375 -0.359375 C 10.4375 -0.296875 10.414062 -0.234375 10.375 -0.171875 C 10.34375 -0.117188 10.28125 -0.0703125 10.1875 -0.03125 C 10.101562 0 9.988281 0.0195312 9.84375 0.03125 C 9.695312 0.0507812 9.515625 0.0625 9.296875 0.0625 C 9.054688 0.0625 8.863281 0.0507812 8.71875 0.03125 C 8.570312 0.0195312 8.453125 0 8.359375 -0.03125 C 8.273438 -0.0703125 8.210938 -0.117188 8.171875 -0.171875 C 8.140625 -0.234375 8.125 -0.296875 8.125 -0.359375 L 8.125 -1.46875 C 7.601562 -0.894531 7.066406 -0.460938 6.515625 -0.171875 C 5.960938 0.109375 5.394531 0.25 4.8125 0.25 C 4.15625 0.25 3.601562 0.144531 3.15625 -0.0625 C 2.707031 -0.28125 2.34375 -0.578125 2.0625 -0.953125 C 1.789062 -1.328125 1.59375 -1.757812 1.46875 -2.25 C 1.351562 -2.738281 1.296875 -3.347656 1.296875 -4.078125 L 1.296875 -9.953125 C 1.296875 -10.023438 1.316406 -10.085938 1.359375 -10.140625 C 1.398438 -10.191406 1.472656 -10.234375 1.578125 -10.265625 C 1.679688 -10.304688 1.816406 -10.332031 1.984375 -10.34375 C 2.160156 -10.363281 2.378906 -10.375 2.640625 -10.375 C 2.910156 -10.375 3.128906 -10.363281 3.296875 -10.34375 C 3.472656 -10.332031 3.613281 -10.304688 3.71875 -10.265625 C 3.820312 -10.234375 3.894531 -10.191406 3.9375 -10.140625 C 3.976562 -10.085938 4 -10.023438 4 -9.953125 L 4 -4.53125 C 4 -4.03125 4.03125 -3.644531 4.09375 -3.375 C 4.15625 -3.113281 4.253906 -2.890625 4.390625 -2.703125 C 4.523438 -2.515625 4.691406 -2.367188 4.890625 -2.265625 C 5.097656 -2.160156 5.335938 -2.109375 5.609375 -2.109375 C 5.953125 -2.109375 6.296875 -2.234375 6.640625 -2.484375 C 6.992188 -2.734375 7.363281 -3.097656 7.75 -3.578125 L 7.75 -9.953125 C 7.75 -10.023438 7.769531 -10.085938 7.8125 -10.140625 C 7.851562 -10.191406 7.925781 -10.234375 8.03125 -10.265625 C 8.132812 -10.304688 8.269531 -10.332031 8.4375 -10.34375 C 8.613281 -10.363281 8.832031 -10.375 9.09375 -10.375 C 9.363281 -10.375 9.582031 -10.363281 9.75 -10.34375 C 9.925781 -10.332031 10.0625 -10.304688 10.15625 -10.265625 C 10.257812 -10.234375 10.332031 -10.191406 10.375 -10.140625 C 10.414062 -10.085938 10.4375 -10.023438 10.4375 -9.953125 Z M 10.4375 -0.359375 "/></g></g></g><g fill="#3b5abc" fill-opacity="1"><g transform="translate(494.998229, 557.620072)"><g><path d="M 7.03125 -1.3125 C 7.03125 -1 7.007812 -0.753906 6.96875 -0.578125 C 6.925781 -0.410156 6.875 -0.289062 6.8125 -0.21875 C 6.75 -0.15625 6.65625 -0.0976562 6.53125 -0.046875 C 6.40625 0.00390625 6.253906 0.0507812 6.078125 0.09375 C 5.910156 0.132812 5.726562 0.164062 5.53125 0.1875 C 5.34375 0.207031 5.144531 0.21875 4.9375 0.21875 C 4.40625 0.21875 3.941406 0.148438 3.546875 0.015625 C 3.148438 -0.117188 2.820312 -0.328125 2.5625 -0.609375 C 2.3125 -0.898438 2.125 -1.257812 2 -1.6875 C 1.875 -2.113281 1.8125 -2.625 1.8125 -3.21875 L 1.8125 -8.125 L 0.671875 -8.125 C 0.535156 -8.125 0.429688 -8.207031 0.359375 -8.375 C 0.285156 -8.539062 0.25 -8.820312 0.25 -9.21875 C 0.25 -9.425781 0.253906 -9.597656 0.265625 -9.734375 C 0.285156 -9.878906 0.3125 -9.992188 0.34375 -10.078125 C 0.382812 -10.160156 0.429688 -10.21875 0.484375 -10.25 C 0.535156 -10.289062 0.597656 -10.3125 0.671875 -10.3125 L 1.8125 -10.3125 L 1.8125 -12.453125 C 1.8125 -12.523438 1.832031 -12.585938 1.875 -12.640625 C 1.914062 -12.703125 1.988281 -12.75 2.09375 -12.78125 C 2.195312 -12.820312 2.332031 -12.851562 2.5 -12.875 C 2.675781 -12.894531 2.894531 -12.90625 3.15625 -12.90625 C 3.425781 -12.90625 3.644531 -12.894531 3.8125 -12.875 C 3.988281 -12.851562 4.128906 -12.820312 4.234375 -12.78125 C 4.335938 -12.75 4.410156 -12.703125 4.453125 -12.640625 C 4.492188 -12.585938 4.515625 -12.523438 4.515625 -12.453125 L 4.515625 -10.3125 L 6.59375 -10.3125 C 6.664062 -10.3125 6.726562 -10.289062 6.78125 -10.25 C 6.832031 -10.21875 6.875 -10.160156 6.90625 -10.078125 C 6.945312 -9.992188 6.976562 -9.878906 7 -9.734375 C 7.019531 -9.597656 7.03125 -9.425781 7.03125 -9.21875 C 7.03125 -8.820312 6.992188 -8.539062 6.921875 -8.375 C 6.847656 -8.207031 6.742188 -8.125 6.609375 -8.125 L 4.515625 -8.125 L 4.515625 -3.625 C 4.515625 -3.101562 4.59375 -2.707031 4.75 -2.4375 C 4.914062 -2.175781 5.210938 -2.046875 5.640625 -2.046875 C 5.785156 -2.046875 5.914062 -2.054688 6.03125 -2.078125 C 6.144531 -2.109375 6.242188 -2.140625 6.328125 -2.171875 C 6.421875 -2.203125 6.5 -2.226562 6.5625 -2.25 C 6.625 -2.28125 6.675781 -2.296875 6.71875 -2.296875 C 6.769531 -2.296875 6.8125 -2.28125 6.84375 -2.25 C 6.882812 -2.226562 6.914062 -2.179688 6.9375 -2.109375 C 6.957031 -2.035156 6.976562 -1.929688 7 -1.796875 C 7.019531 -1.671875 7.03125 -1.507812 7.03125 -1.3125 Z M 7.03125 -1.3125 "/></g></g></g><g fill="#3b5abc" fill-opacity="1"><g transform="translate(502.623828, 557.620072)"><g><path d="M 4.0625 -0.359375 C 4.0625 -0.296875 4.039062 -0.234375 4 -0.171875 C 3.957031 -0.117188 3.882812 -0.0703125 3.78125 -0.03125 C 3.675781 0 3.535156 0.0195312 3.359375 0.03125 C 3.191406 0.0507812 2.972656 0.0625 2.703125 0.0625 C 2.441406 0.0625 2.222656 0.0507812 2.046875 0.03125 C 1.878906 0.0195312 1.742188 0 1.640625 -0.03125 C 1.535156 -0.0703125 1.460938 -0.117188 1.421875 -0.171875 C 1.378906 -0.234375 1.359375 -0.296875 1.359375 -0.359375 L 1.359375 -9.921875 C 1.359375 -9.992188 1.378906 -10.054688 1.421875 -10.109375 C 1.460938 -10.160156 1.535156 -10.207031 1.640625 -10.25 C 1.742188 -10.289062 1.878906 -10.320312 2.046875 -10.34375 C 2.222656 -10.363281 2.441406 -10.375 2.703125 -10.375 C 2.972656 -10.375 3.191406 -10.363281 3.359375 -10.34375 C 3.535156 -10.320312 3.675781 -10.289062 3.78125 -10.25 C 3.882812 -10.207031 3.957031 -10.160156 4 -10.109375 C 4.039062 -10.054688 4.0625 -9.992188 4.0625 -9.921875 Z M 4.265625 -13.1875 C 4.265625 -12.644531 4.148438 -12.269531 3.921875 -12.0625 C 3.703125 -11.851562 3.296875 -11.75 2.703125 -11.75 C 2.085938 -11.75 1.675781 -11.847656 1.46875 -12.046875 C 1.257812 -12.253906 1.15625 -12.617188 1.15625 -13.140625 C 1.15625 -13.679688 1.265625 -14.054688 1.484375 -14.265625 C 1.703125 -14.484375 2.113281 -14.59375 2.71875 -14.59375 C 3.320312 -14.59375 3.726562 -14.488281 3.9375 -14.28125 C 4.15625 -14.070312 4.265625 -13.707031 4.265625 -13.1875 Z M 4.265625 -13.1875 "/></g></g></g><g fill="#3b5abc" fill-opacity="1"><g transform="translate(508.026194, 557.620072)"><g><path d="M 11.046875 -5.25 C 11.046875 -4.4375 10.9375 -3.691406 10.71875 -3.015625 C 10.507812 -2.347656 10.1875 -1.769531 9.75 -1.28125 C 9.3125 -0.789062 8.757812 -0.410156 8.09375 -0.140625 C 7.4375 0.117188 6.671875 0.25 5.796875 0.25 C 4.941406 0.25 4.195312 0.128906 3.5625 -0.109375 C 2.9375 -0.347656 2.414062 -0.691406 2 -1.140625 C 1.582031 -1.585938 1.273438 -2.140625 1.078125 -2.796875 C 0.878906 -3.460938 0.78125 -4.21875 0.78125 -5.0625 C 0.78125 -5.875 0.882812 -6.617188 1.09375 -7.296875 C 1.3125 -7.972656 1.640625 -8.550781 2.078125 -9.03125 C 2.515625 -9.519531 3.0625 -9.894531 3.71875 -10.15625 C 4.375 -10.425781 5.144531 -10.5625 6.03125 -10.5625 C 6.882812 -10.5625 7.625 -10.441406 8.25 -10.203125 C 8.882812 -9.972656 9.40625 -9.632812 9.8125 -9.1875 C 10.226562 -8.738281 10.535156 -8.179688 10.734375 -7.515625 C 10.941406 -6.859375 11.046875 -6.101562 11.046875 -5.25 Z M 8.265625 -5.140625 C 8.265625 -5.617188 8.222656 -6.054688 8.140625 -6.453125 C 8.066406 -6.847656 7.941406 -7.191406 7.765625 -7.484375 C 7.585938 -7.773438 7.347656 -8.003906 7.046875 -8.171875 C 6.753906 -8.335938 6.382812 -8.421875 5.9375 -8.421875 C 5.53125 -8.421875 5.175781 -8.347656 4.875 -8.203125 C 4.570312 -8.054688 4.320312 -7.84375 4.125 -7.5625 C 3.9375 -7.28125 3.796875 -6.9375 3.703125 -6.53125 C 3.609375 -6.132812 3.5625 -5.679688 3.5625 -5.171875 C 3.5625 -4.703125 3.597656 -4.269531 3.671875 -3.875 C 3.753906 -3.476562 3.878906 -3.128906 4.046875 -2.828125 C 4.222656 -2.535156 4.460938 -2.304688 4.765625 -2.140625 C 5.066406 -1.984375 5.441406 -1.90625 5.890625 -1.90625 C 6.296875 -1.90625 6.648438 -1.976562 6.953125 -2.125 C 7.253906 -2.28125 7.5 -2.492188 7.6875 -2.765625 C 7.882812 -3.046875 8.03125 -3.382812 8.125 -3.78125 C 8.21875 -4.1875 8.265625 -4.640625 8.265625 -5.140625 Z M 8.265625 -5.140625 "/></g></g></g><g fill="#3b5abc" fill-opacity="1"><g transform="translate(519.851248, 557.620072)"><g><path d="M 10.5 -0.359375 C 10.5 -0.296875 10.476562 -0.234375 10.4375 -0.171875 C 10.394531 -0.117188 10.320312 -0.0703125 10.21875 -0.03125 C 10.125 0 9.988281 0.0195312 9.8125 0.03125 C 9.632812 0.0507812 9.414062 0.0625 9.15625 0.0625 C 8.894531 0.0625 8.675781 0.0507812 8.5 0.03125 C 8.320312 0.0195312 8.179688 0 8.078125 -0.03125 C 7.984375 -0.0703125 7.914062 -0.117188 7.875 -0.171875 C 7.832031 -0.234375 7.8125 -0.296875 7.8125 -0.359375 L 7.8125 -5.828125 C 7.8125 -6.296875 7.773438 -6.660156 7.703125 -6.921875 C 7.640625 -7.191406 7.539062 -7.421875 7.40625 -7.609375 C 7.28125 -7.796875 7.113281 -7.941406 6.90625 -8.046875 C 6.707031 -8.148438 6.472656 -8.203125 6.203125 -8.203125 C 5.859375 -8.203125 5.507812 -8.078125 5.15625 -7.828125 C 4.800781 -7.578125 4.4375 -7.210938 4.0625 -6.734375 L 4.0625 -0.359375 C 4.0625 -0.296875 4.039062 -0.234375 4 -0.171875 C 3.957031 -0.117188 3.882812 -0.0703125 3.78125 -0.03125 C 3.675781 0 3.535156 0.0195312 3.359375 0.03125 C 3.191406 0.0507812 2.972656 0.0625 2.703125 0.0625 C 2.441406 0.0625 2.222656 0.0507812 2.046875 0.03125 C 1.878906 0.0195312 1.742188 0 1.640625 -0.03125 C 1.535156 -0.0703125 1.460938 -0.117188 1.421875 -0.171875 C 1.378906 -0.234375 1.359375 -0.296875 1.359375 -0.359375 L 1.359375 -9.953125 C 1.359375 -10.023438 1.375 -10.085938 1.40625 -10.140625 C 1.445312 -10.191406 1.507812 -10.234375 1.59375 -10.265625 C 1.6875 -10.304688 1.804688 -10.332031 1.953125 -10.34375 C 2.109375 -10.363281 2.296875 -10.375 2.515625 -10.375 C 2.742188 -10.375 2.929688 -10.363281 3.078125 -10.34375 C 3.234375 -10.332031 3.351562 -10.304688 3.4375 -10.265625 C 3.519531 -10.234375 3.578125 -10.191406 3.609375 -10.140625 C 3.640625 -10.085938 3.65625 -10.023438 3.65625 -9.953125 L 3.65625 -8.84375 C 4.1875 -9.414062 4.726562 -9.84375 5.28125 -10.125 C 5.832031 -10.414062 6.40625 -10.5625 7 -10.5625 C 7.644531 -10.5625 8.191406 -10.453125 8.640625 -10.234375 C 9.085938 -10.023438 9.445312 -9.734375 9.71875 -9.359375 C 10 -8.992188 10.195312 -8.5625 10.3125 -8.0625 C 10.4375 -7.570312 10.5 -6.976562 10.5 -6.28125 Z M 10.5 -0.359375 "/></g></g></g><g fill="#3b5abc" fill-opacity="1"><g transform="translate(531.654821, 557.620072)"><g><path d="M 8.09375 -3.078125 C 8.09375 -2.523438 7.988281 -2.039062 7.78125 -1.625 C 7.582031 -1.21875 7.296875 -0.875 6.921875 -0.59375 C 6.554688 -0.3125 6.117188 -0.101562 5.609375 0.03125 C 5.097656 0.175781 4.546875 0.25 3.953125 0.25 C 3.597656 0.25 3.253906 0.222656 2.921875 0.171875 C 2.597656 0.117188 2.304688 0.0507812 2.046875 -0.03125 C 1.796875 -0.113281 1.582031 -0.195312 1.40625 -0.28125 C 1.238281 -0.375 1.113281 -0.457031 1.03125 -0.53125 C 0.945312 -0.601562 0.882812 -0.71875 0.84375 -0.875 C 0.800781 -1.039062 0.78125 -1.28125 0.78125 -1.59375 C 0.78125 -1.800781 0.785156 -1.96875 0.796875 -2.09375 C 0.816406 -2.21875 0.835938 -2.316406 0.859375 -2.390625 C 0.890625 -2.472656 0.925781 -2.523438 0.96875 -2.546875 C 1.019531 -2.578125 1.078125 -2.59375 1.140625 -2.59375 C 1.210938 -2.59375 1.328125 -2.546875 1.484375 -2.453125 C 1.640625 -2.367188 1.832031 -2.269531 2.0625 -2.15625 C 2.289062 -2.050781 2.554688 -1.953125 2.859375 -1.859375 C 3.160156 -1.765625 3.507812 -1.71875 3.90625 -1.71875 C 4.144531 -1.71875 4.359375 -1.742188 4.546875 -1.796875 C 4.734375 -1.847656 4.894531 -1.921875 5.03125 -2.015625 C 5.175781 -2.109375 5.285156 -2.222656 5.359375 -2.359375 C 5.429688 -2.503906 5.46875 -2.671875 5.46875 -2.859375 C 5.46875 -3.078125 5.398438 -3.257812 5.265625 -3.40625 C 5.140625 -3.5625 4.96875 -3.695312 4.75 -3.8125 C 4.53125 -3.925781 4.28125 -4.03125 4 -4.125 C 3.726562 -4.226562 3.445312 -4.34375 3.15625 -4.46875 C 2.863281 -4.59375 2.578125 -4.734375 2.296875 -4.890625 C 2.023438 -5.046875 1.78125 -5.238281 1.5625 -5.46875 C 1.34375 -5.695312 1.164062 -5.972656 1.03125 -6.296875 C 0.90625 -6.617188 0.84375 -7.003906 0.84375 -7.453125 C 0.84375 -7.910156 0.929688 -8.332031 1.109375 -8.71875 C 1.285156 -9.101562 1.539062 -9.429688 1.875 -9.703125 C 2.21875 -9.972656 2.628906 -10.179688 3.109375 -10.328125 C 3.585938 -10.484375 4.128906 -10.5625 4.734375 -10.5625 C 5.035156 -10.5625 5.328125 -10.539062 5.609375 -10.5 C 5.890625 -10.457031 6.144531 -10.398438 6.375 -10.328125 C 6.601562 -10.265625 6.796875 -10.195312 6.953125 -10.125 C 7.117188 -10.050781 7.234375 -9.984375 7.296875 -9.921875 C 7.367188 -9.867188 7.414062 -9.816406 7.4375 -9.765625 C 7.46875 -9.710938 7.488281 -9.648438 7.5 -9.578125 C 7.519531 -9.503906 7.535156 -9.410156 7.546875 -9.296875 C 7.554688 -9.179688 7.5625 -9.046875 7.5625 -8.890625 C 7.5625 -8.691406 7.554688 -8.53125 7.546875 -8.40625 C 7.535156 -8.289062 7.515625 -8.195312 7.484375 -8.125 C 7.460938 -8.050781 7.429688 -8 7.390625 -7.96875 C 7.347656 -7.945312 7.296875 -7.9375 7.234375 -7.9375 C 7.171875 -7.9375 7.070312 -7.972656 6.9375 -8.046875 C 6.800781 -8.128906 6.628906 -8.210938 6.421875 -8.296875 C 6.222656 -8.378906 5.988281 -8.457031 5.71875 -8.53125 C 5.445312 -8.601562 5.140625 -8.640625 4.796875 -8.640625 C 4.554688 -8.640625 4.347656 -8.613281 4.171875 -8.5625 C 3.992188 -8.519531 3.847656 -8.453125 3.734375 -8.359375 C 3.617188 -8.265625 3.53125 -8.15625 3.46875 -8.03125 C 3.414062 -7.90625 3.390625 -7.769531 3.390625 -7.625 C 3.390625 -7.40625 3.457031 -7.21875 3.59375 -7.0625 C 3.726562 -6.914062 3.90625 -6.785156 4.125 -6.671875 C 4.34375 -6.554688 4.59375 -6.445312 4.875 -6.34375 C 5.164062 -6.25 5.453125 -6.140625 5.734375 -6.015625 C 6.023438 -5.898438 6.3125 -5.765625 6.59375 -5.609375 C 6.882812 -5.453125 7.140625 -5.257812 7.359375 -5.03125 C 7.578125 -4.800781 7.753906 -4.523438 7.890625 -4.203125 C 8.023438 -3.890625 8.09375 -3.515625 8.09375 -3.078125 Z M 8.09375 -3.078125 "/></g></g></g><g fill="#3b5abc" fill-opacity="1"><g transform="translate(540.429635, 557.620072)"><g/></g></g><g fill="#3b5abc" fill-opacity="1"><g transform="translate(545.40239, 557.620072)"><g><path d="M 7.140625 -13.59375 C 7.140625 -13.382812 7.128906 -13.21875 7.109375 -13.09375 C 7.097656 -12.96875 7.078125 -12.867188 7.046875 -12.796875 C 7.015625 -12.734375 6.976562 -12.691406 6.9375 -12.671875 C 6.90625 -12.648438 6.867188 -12.640625 6.828125 -12.640625 C 6.773438 -12.640625 6.71875 -12.648438 6.65625 -12.671875 C 6.601562 -12.691406 6.53125 -12.71875 6.4375 -12.75 C 6.351562 -12.78125 6.25 -12.804688 6.125 -12.828125 C 6 -12.859375 5.851562 -12.875 5.6875 -12.875 C 5.5 -12.875 5.332031 -12.84375 5.1875 -12.78125 C 5.050781 -12.71875 4.9375 -12.617188 4.84375 -12.484375 C 4.75 -12.359375 4.679688 -12.1875 4.640625 -11.96875 C 4.597656 -11.757812 4.578125 -11.5 4.578125 -11.1875 L 4.578125 -10.3125 L 6.328125 -10.3125 C 6.390625 -10.3125 6.445312 -10.289062 6.5 -10.25 C 6.550781 -10.21875 6.59375 -10.160156 6.625 -10.078125 C 6.664062 -9.992188 6.695312 -9.878906 6.71875 -9.734375 C 6.738281 -9.597656 6.75 -9.425781 6.75 -9.21875 C 6.75 -8.820312 6.710938 -8.539062 6.640625 -8.375 C 6.566406 -8.207031 6.460938 -8.125 6.328125 -8.125 L 4.578125 -8.125 L 4.578125 -0.359375 C 4.578125 -0.296875 4.554688 -0.234375 4.515625 -0.171875 C 4.472656 -0.117188 4.398438 -0.0703125 4.296875 -0.03125 C 4.191406 0 4.050781 0.0195312 3.875 0.03125 C 3.695312 0.0507812 3.476562 0.0625 3.21875 0.0625 C 2.96875 0.0625 2.753906 0.0507812 2.578125 0.03125 C 2.398438 0.0195312 2.257812 0 2.15625 -0.03125 C 2.050781 -0.0703125 1.976562 -0.117188 1.9375 -0.171875 C 1.894531 -0.234375 1.875 -0.296875 1.875 -0.359375 L 1.875 -8.125 L 0.671875 -8.125 C 0.535156 -8.125 0.429688 -8.207031 0.359375 -8.375 C 0.296875 -8.539062 0.265625 -8.820312 0.265625 -9.21875 C 0.265625 -9.425781 0.273438 -9.597656 0.296875 -9.734375 C 0.316406 -9.878906 0.34375 -9.992188 0.375 -10.078125 C 0.40625 -10.160156 0.445312 -10.21875 0.5 -10.25 C 0.550781 -10.289062 0.613281 -10.3125 0.6875 -10.3125 L 1.875 -10.3125 L 1.875 -11.125 C 1.875 -11.769531 1.9375 -12.335938 2.0625 -12.828125 C 2.195312 -13.316406 2.398438 -13.722656 2.671875 -14.046875 C 2.953125 -14.378906 3.304688 -14.628906 3.734375 -14.796875 C 4.160156 -14.960938 4.664062 -15.046875 5.25 -15.046875 C 5.519531 -15.046875 5.78125 -15.019531 6.03125 -14.96875 C 6.28125 -14.925781 6.476562 -14.875 6.625 -14.8125 C 6.769531 -14.757812 6.867188 -14.707031 6.921875 -14.65625 C 6.972656 -14.613281 7.015625 -14.546875 7.046875 -14.453125 C 7.078125 -14.367188 7.097656 -14.253906 7.109375 -14.109375 C 7.128906 -13.972656 7.140625 -13.800781 7.140625 -13.59375 Z M 7.140625 -13.59375 "/></g></g></g><g fill="#3b5abc" fill-opacity="1"><g transform="translate(552.362091, 557.620072)"><g><path d="M 11.046875 -5.25 C 11.046875 -4.4375 10.9375 -3.691406 10.71875 -3.015625 C 10.507812 -2.347656 10.1875 -1.769531 9.75 -1.28125 C 9.3125 -0.789062 8.757812 -0.410156 8.09375 -0.140625 C 7.4375 0.117188 6.671875 0.25 5.796875 0.25 C 4.941406 0.25 4.195312 0.128906 3.5625 -0.109375 C 2.9375 -0.347656 2.414062 -0.691406 2 -1.140625 C 1.582031 -1.585938 1.273438 -2.140625 1.078125 -2.796875 C 0.878906 -3.460938 0.78125 -4.21875 0.78125 -5.0625 C 0.78125 -5.875 0.882812 -6.617188 1.09375 -7.296875 C 1.3125 -7.972656 1.640625 -8.550781 2.078125 -9.03125 C 2.515625 -9.519531 3.0625 -9.894531 3.71875 -10.15625 C 4.375 -10.425781 5.144531 -10.5625 6.03125 -10.5625 C 6.882812 -10.5625 7.625 -10.441406 8.25 -10.203125 C 8.882812 -9.972656 9.40625 -9.632812 9.8125 -9.1875 C 10.226562 -8.738281 10.535156 -8.179688 10.734375 -7.515625 C 10.941406 -6.859375 11.046875 -6.101562 11.046875 -5.25 Z M 8.265625 -5.140625 C 8.265625 -5.617188 8.222656 -6.054688 8.140625 -6.453125 C 8.066406 -6.847656 7.941406 -7.191406 7.765625 -7.484375 C 7.585938 -7.773438 7.347656 -8.003906 7.046875 -8.171875 C 6.753906 -8.335938 6.382812 -8.421875 5.9375 -8.421875 C 5.53125 -8.421875 5.175781 -8.347656 4.875 -8.203125 C 4.570312 -8.054688 4.320312 -7.84375 4.125 -7.5625 C 3.9375 -7.28125 3.796875 -6.9375 3.703125 -6.53125 C 3.609375 -6.132812 3.5625 -5.679688 3.5625 -5.171875 C 3.5625 -4.703125 3.597656 -4.269531 3.671875 -3.875 C 3.753906 -3.476562 3.878906 -3.128906 4.046875 -2.828125 C 4.222656 -2.535156 4.460938 -2.304688 4.765625 -2.140625 C 5.066406 -1.984375 5.441406 -1.90625 5.890625 -1.90625 C 6.296875 -1.90625 6.648438 -1.976562 6.953125 -2.125 C 7.253906 -2.28125 7.5 -2.492188 7.6875 -2.765625 C 7.882812 -3.046875 8.03125 -3.382812 8.125 -3.78125 C 8.21875 -4.1875 8.265625 -4.640625 8.265625 -5.140625 Z M 8.265625 -5.140625 "/></g></g></g><g fill="#3b5abc" fill-opacity="1"><g transform="translate(564.187145, 557.620072)"><g><path d="M 7.515625 -9.0625 C 7.515625 -8.800781 7.503906 -8.585938 7.484375 -8.421875 C 7.472656 -8.253906 7.453125 -8.125 7.421875 -8.03125 C 7.390625 -7.9375 7.347656 -7.867188 7.296875 -7.828125 C 7.253906 -7.796875 7.203125 -7.78125 7.140625 -7.78125 C 7.078125 -7.78125 7.007812 -7.789062 6.9375 -7.8125 C 6.863281 -7.84375 6.78125 -7.875 6.6875 -7.90625 C 6.601562 -7.9375 6.503906 -7.960938 6.390625 -7.984375 C 6.285156 -8.015625 6.171875 -8.03125 6.046875 -8.03125 C 5.898438 -8.03125 5.75 -8 5.59375 -7.9375 C 5.445312 -7.875 5.289062 -7.773438 5.125 -7.640625 C 4.96875 -7.515625 4.800781 -7.34375 4.625 -7.125 C 4.445312 -6.914062 4.257812 -6.65625 4.0625 -6.34375 L 4.0625 -0.359375 C 4.0625 -0.296875 4.039062 -0.234375 4 -0.171875 C 3.957031 -0.117188 3.882812 -0.0703125 3.78125 -0.03125 C 3.675781 0 3.535156 0.0195312 3.359375 0.03125 C 3.191406 0.0507812 2.972656 0.0625 2.703125 0.0625 C 2.441406 0.0625 2.222656 0.0507812 2.046875 0.03125 C 1.878906 0.0195312 1.742188 0 1.640625 -0.03125 C 1.535156 -0.0703125 1.460938 -0.117188 1.421875 -0.171875 C 1.378906 -0.234375 1.359375 -0.296875 1.359375 -0.359375 L 1.359375 -9.953125 C 1.359375 -10.023438 1.375 -10.085938 1.40625 -10.140625 C 1.445312 -10.191406 1.507812 -10.234375 1.59375 -10.265625 C 1.6875 -10.304688 1.804688 -10.332031 1.953125 -10.34375 C 2.109375 -10.363281 2.296875 -10.375 2.515625 -10.375 C 2.742188 -10.375 2.929688 -10.363281 3.078125 -10.34375 C 3.234375 -10.332031 3.351562 -10.304688 3.4375 -10.265625 C 3.519531 -10.234375 3.578125 -10.191406 3.609375 -10.140625 C 3.640625 -10.085938 3.65625 -10.023438 3.65625 -9.953125 L 3.65625 -8.75 C 3.914062 -9.113281 4.15625 -9.410156 4.375 -9.640625 C 4.59375 -9.867188 4.800781 -10.050781 5 -10.1875 C 5.207031 -10.332031 5.410156 -10.429688 5.609375 -10.484375 C 5.804688 -10.535156 6.003906 -10.5625 6.203125 -10.5625 C 6.296875 -10.5625 6.394531 -10.554688 6.5 -10.546875 C 6.613281 -10.535156 6.726562 -10.515625 6.84375 -10.484375 C 6.957031 -10.460938 7.054688 -10.4375 7.140625 -10.40625 C 7.222656 -10.375 7.285156 -10.335938 7.328125 -10.296875 C 7.367188 -10.265625 7.394531 -10.226562 7.40625 -10.1875 C 7.425781 -10.144531 7.441406 -10.082031 7.453125 -10 C 7.472656 -9.925781 7.488281 -9.8125 7.5 -9.65625 C 7.507812 -9.507812 7.515625 -9.3125 7.515625 -9.0625 Z M 7.515625 -9.0625 "/></g></g></g><g fill="#3b5abc" fill-opacity="1"><g transform="translate(572.006068, 557.620072)"><g/></g></g><g fill="#3b5abc" fill-opacity="1"><g transform="translate(576.978824, 557.620072)"><g><path d="M 9.515625 -0.328125 C 9.515625 -0.234375 9.476562 -0.15625 9.40625 -0.09375 C 9.332031 -0.0390625 9.21875 -0.00390625 9.0625 0.015625 C 8.914062 0.046875 8.691406 0.0625 8.390625 0.0625 C 8.066406 0.0625 7.832031 0.046875 7.6875 0.015625 C 7.539062 -0.00390625 7.4375 -0.0390625 7.375 -0.09375 C 7.3125 -0.15625 7.28125 -0.234375 7.28125 -0.328125 L 7.28125 -1.09375 C 6.882812 -0.675781 6.429688 -0.347656 5.921875 -0.109375 C 5.421875 0.128906 4.863281 0.25 4.25 0.25 C 3.738281 0.25 3.269531 0.179688 2.84375 0.046875 C 2.425781 -0.0859375 2.0625 -0.285156 1.75 -0.546875 C 1.4375 -0.804688 1.191406 -1.128906 1.015625 -1.515625 C 0.847656 -1.898438 0.765625 -2.351562 0.765625 -2.875 C 0.765625 -3.425781 0.875 -3.90625 1.09375 -4.3125 C 1.3125 -4.726562 1.632812 -5.070312 2.0625 -5.34375 C 2.5 -5.613281 3.039062 -5.8125 3.6875 -5.9375 C 4.332031 -6.070312 5.082031 -6.140625 5.9375 -6.140625 L 6.859375 -6.140625 L 6.859375 -6.71875 C 6.859375 -7.019531 6.828125 -7.28125 6.765625 -7.5 C 6.710938 -7.726562 6.613281 -7.914062 6.46875 -8.0625 C 6.332031 -8.21875 6.144531 -8.332031 5.90625 -8.40625 C 5.675781 -8.476562 5.390625 -8.515625 5.046875 -8.515625 C 4.597656 -8.515625 4.195312 -8.460938 3.84375 -8.359375 C 3.488281 -8.253906 3.175781 -8.140625 2.90625 -8.015625 C 2.632812 -7.898438 2.40625 -7.789062 2.21875 -7.6875 C 2.03125 -7.59375 1.878906 -7.546875 1.765625 -7.546875 C 1.691406 -7.546875 1.625 -7.566406 1.5625 -7.609375 C 1.5 -7.660156 1.445312 -7.734375 1.40625 -7.828125 C 1.375 -7.921875 1.347656 -8.035156 1.328125 -8.171875 C 1.304688 -8.304688 1.296875 -8.457031 1.296875 -8.625 C 1.296875 -8.84375 1.3125 -9.015625 1.34375 -9.140625 C 1.375 -9.273438 1.441406 -9.394531 1.546875 -9.5 C 1.648438 -9.601562 1.828125 -9.71875 2.078125 -9.84375 C 2.328125 -9.96875 2.617188 -10.082031 2.953125 -10.1875 C 3.285156 -10.300781 3.648438 -10.390625 4.046875 -10.453125 C 4.453125 -10.523438 4.863281 -10.5625 5.28125 -10.5625 C 6.03125 -10.5625 6.671875 -10.488281 7.203125 -10.34375 C 7.742188 -10.195312 8.1875 -9.96875 8.53125 -9.65625 C 8.875 -9.351562 9.125 -8.960938 9.28125 -8.484375 C 9.4375 -8.003906 9.515625 -7.4375 9.515625 -6.78125 Z M 6.859375 -4.4375 L 5.828125 -4.4375 C 5.390625 -4.4375 5.015625 -4.40625 4.703125 -4.34375 C 4.398438 -4.28125 4.148438 -4.179688 3.953125 -4.046875 C 3.765625 -3.921875 3.625 -3.765625 3.53125 -3.578125 C 3.445312 -3.398438 3.40625 -3.191406 3.40625 -2.953125 C 3.40625 -2.554688 3.53125 -2.242188 3.78125 -2.015625 C 4.039062 -1.785156 4.394531 -1.671875 4.84375 -1.671875 C 5.226562 -1.671875 5.578125 -1.765625 5.890625 -1.953125 C 6.210938 -2.148438 6.535156 -2.429688 6.859375 -2.796875 Z M 6.859375 -4.4375 "/></g></g></g><g fill="#3b5abc" fill-opacity="1"><g transform="translate(587.837252, 557.620072)"><g/></g></g><g fill="#3b5abc" fill-opacity="1"><g transform="translate(592.809996, 557.620072)"><g><path d="M 10.4375 -0.359375 C 10.4375 -0.285156 10.414062 -0.222656 10.375 -0.171875 C 10.34375 -0.117188 10.285156 -0.0703125 10.203125 -0.03125 C 10.117188 0 10.003906 0.0195312 9.859375 0.03125 C 9.710938 0.0507812 9.53125 0.0625 9.3125 0.0625 C 9.082031 0.0625 8.894531 0.0507812 8.75 0.03125 C 8.613281 0.0195312 8.5 0 8.40625 -0.03125 C 8.3125 -0.0703125 8.242188 -0.117188 8.203125 -0.171875 C 8.171875 -0.222656 8.15625 -0.285156 8.15625 -0.359375 L 8.15625 -1.421875 C 7.65625 -0.898438 7.132812 -0.488281 6.59375 -0.1875 C 6.0625 0.101562 5.460938 0.25 4.796875 0.25 C 4.066406 0.25 3.445312 0.109375 2.9375 -0.171875 C 2.4375 -0.460938 2.023438 -0.847656 1.703125 -1.328125 C 1.390625 -1.804688 1.160156 -2.363281 1.015625 -3 C 0.878906 -3.644531 0.8125 -4.320312 0.8125 -5.03125 C 0.8125 -5.882812 0.898438 -6.648438 1.078125 -7.328125 C 1.265625 -8.003906 1.53125 -8.582031 1.875 -9.0625 C 2.226562 -9.539062 2.664062 -9.910156 3.1875 -10.171875 C 3.707031 -10.429688 4.3125 -10.5625 5 -10.5625 C 5.53125 -10.5625 6.015625 -10.453125 6.453125 -10.234375 C 6.890625 -10.015625 7.320312 -9.691406 7.75 -9.265625 L 7.75 -14.453125 C 7.75 -14.523438 7.769531 -14.585938 7.8125 -14.640625 C 7.851562 -14.703125 7.925781 -14.753906 8.03125 -14.796875 C 8.132812 -14.835938 8.269531 -14.867188 8.4375 -14.890625 C 8.613281 -14.910156 8.832031 -14.921875 9.09375 -14.921875 C 9.363281 -14.921875 9.582031 -14.910156 9.75 -14.890625 C 9.925781 -14.867188 10.0625 -14.835938 10.15625 -14.796875 C 10.257812 -14.753906 10.332031 -14.703125 10.375 -14.640625 C 10.414062 -14.585938 10.4375 -14.523438 10.4375 -14.453125 Z M 7.75 -6.765625 C 7.363281 -7.253906 6.992188 -7.625 6.640625 -7.875 C 6.285156 -8.132812 5.914062 -8.265625 5.53125 -8.265625 C 5.175781 -8.265625 4.875 -8.175781 4.625 -8 C 4.375 -7.832031 4.171875 -7.597656 4.015625 -7.296875 C 3.859375 -7.003906 3.742188 -6.675781 3.671875 -6.3125 C 3.597656 -5.957031 3.5625 -5.585938 3.5625 -5.203125 C 3.5625 -4.804688 3.59375 -4.414062 3.65625 -4.03125 C 3.71875 -3.65625 3.820312 -3.316406 3.96875 -3.015625 C 4.113281 -2.722656 4.304688 -2.488281 4.546875 -2.3125 C 4.796875 -2.132812 5.109375 -2.046875 5.484375 -2.046875 C 5.671875 -2.046875 5.847656 -2.070312 6.015625 -2.125 C 6.191406 -2.175781 6.367188 -2.257812 6.546875 -2.375 C 6.734375 -2.5 6.921875 -2.660156 7.109375 -2.859375 C 7.304688 -3.054688 7.519531 -3.300781 7.75 -3.59375 Z M 7.75 -6.765625 "/></g></g></g><g fill="#3b5abc" fill-opacity="1"><g transform="translate(604.613569, 557.620072)"><g><path d="M 4.0625 -0.359375 C 4.0625 -0.296875 4.039062 -0.234375 4 -0.171875 C 3.957031 -0.117188 3.882812 -0.0703125 3.78125 -0.03125 C 3.675781 0 3.535156 0.0195312 3.359375 0.03125 C 3.191406 0.0507812 2.972656 0.0625 2.703125 0.0625 C 2.441406 0.0625 2.222656 0.0507812 2.046875 0.03125 C 1.878906 0.0195312 1.742188 0 1.640625 -0.03125 C 1.535156 -0.0703125 1.460938 -0.117188 1.421875 -0.171875 C 1.378906 -0.234375 1.359375 -0.296875 1.359375 -0.359375 L 1.359375 -9.921875 C 1.359375 -9.992188 1.378906 -10.054688 1.421875 -10.109375 C 1.460938 -10.160156 1.535156 -10.207031 1.640625 -10.25 C 1.742188 -10.289062 1.878906 -10.320312 2.046875 -10.34375 C 2.222656 -10.363281 2.441406 -10.375 2.703125 -10.375 C 2.972656 -10.375 3.191406 -10.363281 3.359375 -10.34375 C 3.535156 -10.320312 3.675781 -10.289062 3.78125 -10.25 C 3.882812 -10.207031 3.957031 -10.160156 4 -10.109375 C 4.039062 -10.054688 4.0625 -9.992188 4.0625 -9.921875 Z M 4.265625 -13.1875 C 4.265625 -12.644531 4.148438 -12.269531 3.921875 -12.0625 C 3.703125 -11.851562 3.296875 -11.75 2.703125 -11.75 C 2.085938 -11.75 1.675781 -11.847656 1.46875 -12.046875 C 1.257812 -12.253906 1.15625 -12.617188 1.15625 -13.140625 C 1.15625 -13.679688 1.265625 -14.054688 1.484375 -14.265625 C 1.703125 -14.484375 2.113281 -14.59375 2.71875 -14.59375 C 3.320312 -14.59375 3.726562 -14.488281 3.9375 -14.28125 C 4.15625 -14.070312 4.265625 -13.707031 4.265625 -13.1875 Z M 4.265625 -13.1875 "/></g></g></g><g fill="#3b5abc" fill-opacity="1"><g transform="translate(610.015935, 557.620072)"><g><path d="M 9.984375 -9.28125 C 9.984375 -8.9375 9.941406 -8.679688 9.859375 -8.515625 C 9.785156 -8.347656 9.691406 -8.265625 9.578125 -8.265625 L 8.453125 -8.265625 C 8.609375 -8.097656 8.71875 -7.90625 8.78125 -7.6875 C 8.851562 -7.46875 8.890625 -7.238281 8.890625 -7 C 8.890625 -6.445312 8.796875 -5.953125 8.609375 -5.515625 C 8.429688 -5.078125 8.164062 -4.707031 7.8125 -4.40625 C 7.46875 -4.113281 7.050781 -3.890625 6.5625 -3.734375 C 6.070312 -3.585938 5.523438 -3.515625 4.921875 -3.515625 C 4.609375 -3.515625 4.3125 -3.550781 4.03125 -3.625 C 3.757812 -3.695312 3.546875 -3.785156 3.390625 -3.890625 C 3.304688 -3.796875 3.226562 -3.679688 3.15625 -3.546875 C 3.09375 -3.421875 3.0625 -3.28125 3.0625 -3.125 C 3.0625 -2.914062 3.148438 -2.742188 3.328125 -2.609375 C 3.515625 -2.484375 3.773438 -2.410156 4.109375 -2.390625 L 6.4375 -2.3125 C 6.976562 -2.289062 7.460938 -2.210938 7.890625 -2.078125 C 8.316406 -1.941406 8.675781 -1.753906 8.96875 -1.515625 C 9.257812 -1.273438 9.476562 -0.988281 9.625 -0.65625 C 9.78125 -0.320312 9.859375 0.0625 9.859375 0.5 C 9.859375 0.96875 9.753906 1.410156 9.546875 1.828125 C 9.335938 2.242188 9.023438 2.609375 8.609375 2.921875 C 8.203125 3.234375 7.679688 3.476562 7.046875 3.65625 C 6.421875 3.832031 5.691406 3.921875 4.859375 3.921875 C 4.035156 3.921875 3.335938 3.851562 2.765625 3.71875 C 2.191406 3.59375 1.71875 3.414062 1.34375 3.1875 C 0.976562 2.957031 0.710938 2.679688 0.546875 2.359375 C 0.378906 2.046875 0.296875 1.703125 0.296875 1.328125 C 0.296875 1.085938 0.320312 0.859375 0.375 0.640625 C 0.4375 0.429688 0.523438 0.226562 0.640625 0.03125 C 0.765625 -0.164062 0.910156 -0.351562 1.078125 -0.53125 C 1.253906 -0.71875 1.453125 -0.890625 1.671875 -1.046875 C 1.367188 -1.210938 1.128906 -1.4375 0.953125 -1.71875 C 0.785156 -2.007812 0.703125 -2.320312 0.703125 -2.65625 C 0.703125 -3.070312 0.800781 -3.453125 1 -3.796875 C 1.195312 -4.148438 1.445312 -4.46875 1.75 -4.75 C 1.5 -5 1.296875 -5.296875 1.140625 -5.640625 C 0.992188 -5.992188 0.921875 -6.4375 0.921875 -6.96875 C 0.921875 -7.519531 1.019531 -8.015625 1.21875 -8.453125 C 1.414062 -8.898438 1.6875 -9.273438 2.03125 -9.578125 C 2.382812 -9.878906 2.804688 -10.109375 3.296875 -10.265625 C 3.785156 -10.429688 4.320312 -10.515625 4.90625 -10.515625 C 5.207031 -10.515625 5.492188 -10.492188 5.765625 -10.453125 C 6.046875 -10.421875 6.304688 -10.375 6.546875 -10.3125 L 9.578125 -10.3125 C 9.703125 -10.3125 9.800781 -10.234375 9.875 -10.078125 C 9.945312 -9.921875 9.984375 -9.65625 9.984375 -9.28125 Z M 6.515625 -7.015625 C 6.515625 -7.523438 6.367188 -7.921875 6.078125 -8.203125 C 5.796875 -8.492188 5.394531 -8.640625 4.875 -8.640625 C 4.613281 -8.640625 4.378906 -8.59375 4.171875 -8.5 C 3.972656 -8.414062 3.804688 -8.296875 3.671875 -8.140625 C 3.546875 -7.992188 3.445312 -7.816406 3.375 -7.609375 C 3.3125 -7.410156 3.28125 -7.195312 3.28125 -6.96875 C 3.28125 -6.476562 3.421875 -6.09375 3.703125 -5.8125 C 3.992188 -5.53125 4.394531 -5.390625 4.90625 -5.390625 C 5.175781 -5.390625 5.410156 -5.429688 5.609375 -5.515625 C 5.816406 -5.609375 5.984375 -5.726562 6.109375 -5.875 C 6.242188 -6.03125 6.34375 -6.203125 6.40625 -6.390625 C 6.476562 -6.585938 6.515625 -6.796875 6.515625 -7.015625 Z M 7.15625 0.640625 C 7.15625 0.316406 7.023438 0.0703125 6.765625 -0.09375 C 6.503906 -0.269531 6.148438 -0.367188 5.703125 -0.390625 L 3.78125 -0.4375 C 3.59375 -0.300781 3.441406 -0.171875 3.328125 -0.046875 C 3.222656 0.078125 3.132812 0.195312 3.0625 0.3125 C 3 0.425781 2.957031 0.535156 2.9375 0.640625 C 2.914062 0.753906 2.90625 0.867188 2.90625 0.984375 C 2.90625 1.335938 3.082031 1.609375 3.4375 1.796875 C 3.800781 1.984375 4.3125 2.078125 4.96875 2.078125 C 5.382812 2.078125 5.726562 2.035156 6 1.953125 C 6.28125 1.867188 6.503906 1.757812 6.671875 1.625 C 6.847656 1.488281 6.972656 1.332031 7.046875 1.15625 C 7.117188 0.988281 7.15625 0.816406 7.15625 0.640625 Z M 7.15625 0.640625 "/></g></g></g><g fill="#3b5abc" fill-opacity="1"><g transform="translate(620.444752, 557.620072)"><g><path d="M 4.0625 -0.359375 C 4.0625 -0.296875 4.039062 -0.234375 4 -0.171875 C 3.957031 -0.117188 3.882812 -0.0703125 3.78125 -0.03125 C 3.675781 0 3.535156 0.0195312 3.359375 0.03125 C 3.191406 0.0507812 2.972656 0.0625 2.703125 0.0625 C 2.441406 0.0625 2.222656 0.0507812 2.046875 0.03125 C 1.878906 0.0195312 1.742188 0 1.640625 -0.03125 C 1.535156 -0.0703125 1.460938 -0.117188 1.421875 -0.171875 C 1.378906 -0.234375 1.359375 -0.296875 1.359375 -0.359375 L 1.359375 -9.921875 C 1.359375 -9.992188 1.378906 -10.054688 1.421875 -10.109375 C 1.460938 -10.160156 1.535156 -10.207031 1.640625 -10.25 C 1.742188 -10.289062 1.878906 -10.320312 2.046875 -10.34375 C 2.222656 -10.363281 2.441406 -10.375 2.703125 -10.375 C 2.972656 -10.375 3.191406 -10.363281 3.359375 -10.34375 C 3.535156 -10.320312 3.675781 -10.289062 3.78125 -10.25 C 3.882812 -10.207031 3.957031 -10.160156 4 -10.109375 C 4.039062 -10.054688 4.0625 -9.992188 4.0625 -9.921875 Z M 4.265625 -13.1875 C 4.265625 -12.644531 4.148438 -12.269531 3.921875 -12.0625 C 3.703125 -11.851562 3.296875 -11.75 2.703125 -11.75 C 2.085938 -11.75 1.675781 -11.847656 1.46875 -12.046875 C 1.257812 -12.253906 1.15625 -12.617188 1.15625 -13.140625 C 1.15625 -13.679688 1.265625 -14.054688 1.484375 -14.265625 C 1.703125 -14.484375 2.113281 -14.59375 2.71875 -14.59375 C 3.320312 -14.59375 3.726562 -14.488281 3.9375 -14.28125 C 4.15625 -14.070312 4.265625 -13.707031 4.265625 -13.1875 Z M 4.265625 -13.1875 "/></g></g></g><g fill="#3b5abc" fill-opacity="1"><g transform="translate(625.847119, 557.620072)"><g><path d="M 7.03125 -1.3125 C 7.03125 -1 7.007812 -0.753906 6.96875 -0.578125 C 6.925781 -0.410156 6.875 -0.289062 6.8125 -0.21875 C 6.75 -0.15625 6.65625 -0.0976562 6.53125 -0.046875 C 6.40625 0.00390625 6.253906 0.0507812 6.078125 0.09375 C 5.910156 0.132812 5.726562 0.164062 5.53125 0.1875 C 5.34375 0.207031 5.144531 0.21875 4.9375 0.21875 C 4.40625 0.21875 3.941406 0.148438 3.546875 0.015625 C 3.148438 -0.117188 2.820312 -0.328125 2.5625 -0.609375 C 2.3125 -0.898438 2.125 -1.257812 2 -1.6875 C 1.875 -2.113281 1.8125 -2.625 1.8125 -3.21875 L 1.8125 -8.125 L 0.671875 -8.125 C 0.535156 -8.125 0.429688 -8.207031 0.359375 -8.375 C 0.285156 -8.539062 0.25 -8.820312 0.25 -9.21875 C 0.25 -9.425781 0.253906 -9.597656 0.265625 -9.734375 C 0.285156 -9.878906 0.3125 -9.992188 0.34375 -10.078125 C 0.382812 -10.160156 0.429688 -10.21875 0.484375 -10.25 C 0.535156 -10.289062 0.597656 -10.3125 0.671875 -10.3125 L 1.8125 -10.3125 L 1.8125 -12.453125 C 1.8125 -12.523438 1.832031 -12.585938 1.875 -12.640625 C 1.914062 -12.703125 1.988281 -12.75 2.09375 -12.78125 C 2.195312 -12.820312 2.332031 -12.851562 2.5 -12.875 C 2.675781 -12.894531 2.894531 -12.90625 3.15625 -12.90625 C 3.425781 -12.90625 3.644531 -12.894531 3.8125 -12.875 C 3.988281 -12.851562 4.128906 -12.820312 4.234375 -12.78125 C 4.335938 -12.75 4.410156 -12.703125 4.453125 -12.640625 C 4.492188 -12.585938 4.515625 -12.523438 4.515625 -12.453125 L 4.515625 -10.3125 L 6.59375 -10.3125 C 6.664062 -10.3125 6.726562 -10.289062 6.78125 -10.25 C 6.832031 -10.21875 6.875 -10.160156 6.90625 -10.078125 C 6.945312 -9.992188 6.976562 -9.878906 7 -9.734375 C 7.019531 -9.597656 7.03125 -9.425781 7.03125 -9.21875 C 7.03125 -8.820312 6.992188 -8.539062 6.921875 -8.375 C 6.847656 -8.207031 6.742188 -8.125 6.609375 -8.125 L 4.515625 -8.125 L 4.515625 -3.625 C 4.515625 -3.101562 4.59375 -2.707031 4.75 -2.4375 C 4.914062 -2.175781 5.210938 -2.046875 5.640625 -2.046875 C 5.785156 -2.046875 5.914062 -2.054688 6.03125 -2.078125 C 6.144531 -2.109375 6.242188 -2.140625 6.328125 -2.171875 C 6.421875 -2.203125 6.5 -2.226562 6.5625 -2.25 C 6.625 -2.28125 6.675781 -2.296875 6.71875 -2.296875 C 6.769531 -2.296875 6.8125 -2.28125 6.84375 -2.25 C 6.882812 -2.226562 6.914062 -2.179688 6.9375 -2.109375 C 6.957031 -2.035156 6.976562 -1.929688 7 -1.796875 C 7.019531 -1.671875 7.03125 -1.507812 7.03125 -1.3125 Z M 7.03125 -1.3125 "/></g></g></g><g fill="#3b5abc" fill-opacity="1"><g transform="translate(633.472729, 557.620072)"><g><path d="M 9.515625 -0.328125 C 9.515625 -0.234375 9.476562 -0.15625 9.40625 -0.09375 C 9.332031 -0.0390625 9.21875 -0.00390625 9.0625 0.015625 C 8.914062 0.046875 8.691406 0.0625 8.390625 0.0625 C 8.066406 0.0625 7.832031 0.046875 7.6875 0.015625 C 7.539062 -0.00390625 7.4375 -0.0390625 7.375 -0.09375 C 7.3125 -0.15625 7.28125 -0.234375 7.28125 -0.328125 L 7.28125 -1.09375 C 6.882812 -0.675781 6.429688 -0.347656 5.921875 -0.109375 C 5.421875 0.128906 4.863281 0.25 4.25 0.25 C 3.738281 0.25 3.269531 0.179688 2.84375 0.046875 C 2.425781 -0.0859375 2.0625 -0.285156 1.75 -0.546875 C 1.4375 -0.804688 1.191406 -1.128906 1.015625 -1.515625 C 0.847656 -1.898438 0.765625 -2.351562 0.765625 -2.875 C 0.765625 -3.425781 0.875 -3.90625 1.09375 -4.3125 C 1.3125 -4.726562 1.632812 -5.070312 2.0625 -5.34375 C 2.5 -5.613281 3.039062 -5.8125 3.6875 -5.9375 C 4.332031 -6.070312 5.082031 -6.140625 5.9375 -6.140625 L 6.859375 -6.140625 L 6.859375 -6.71875 C 6.859375 -7.019531 6.828125 -7.28125 6.765625 -7.5 C 6.710938 -7.726562 6.613281 -7.914062 6.46875 -8.0625 C 6.332031 -8.21875 6.144531 -8.332031 5.90625 -8.40625 C 5.675781 -8.476562 5.390625 -8.515625 5.046875 -8.515625 C 4.597656 -8.515625 4.195312 -8.460938 3.84375 -8.359375 C 3.488281 -8.253906 3.175781 -8.140625 2.90625 -8.015625 C 2.632812 -7.898438 2.40625 -7.789062 2.21875 -7.6875 C 2.03125 -7.59375 1.878906 -7.546875 1.765625 -7.546875 C 1.691406 -7.546875 1.625 -7.566406 1.5625 -7.609375 C 1.5 -7.660156 1.445312 -7.734375 1.40625 -7.828125 C 1.375 -7.921875 1.347656 -8.035156 1.328125 -8.171875 C 1.304688 -8.304688 1.296875 -8.457031 1.296875 -8.625 C 1.296875 -8.84375 1.3125 -9.015625 1.34375 -9.140625 C 1.375 -9.273438 1.441406 -9.394531 1.546875 -9.5 C 1.648438 -9.601562 1.828125 -9.71875 2.078125 -9.84375 C 2.328125 -9.96875 2.617188 -10.082031 2.953125 -10.1875 C 3.285156 -10.300781 3.648438 -10.390625 4.046875 -10.453125 C 4.453125 -10.523438 4.863281 -10.5625 5.28125 -10.5625 C 6.03125 -10.5625 6.671875 -10.488281 7.203125 -10.34375 C 7.742188 -10.195312 8.1875 -9.96875 8.53125 -9.65625 C 8.875 -9.351562 9.125 -8.960938 9.28125 -8.484375 C 9.4375 -8.003906 9.515625 -7.4375 9.515625 -6.78125 Z M 6.859375 -4.4375 L 5.828125 -4.4375 C 5.390625 -4.4375 5.015625 -4.40625 4.703125 -4.34375 C 4.398438 -4.28125 4.148438 -4.179688 3.953125 -4.046875 C 3.765625 -3.921875 3.625 -3.765625 3.53125 -3.578125 C 3.445312 -3.398438 3.40625 -3.191406 3.40625 -2.953125 C 3.40625 -2.554688 3.53125 -2.242188 3.78125 -2.015625 C 4.039062 -1.785156 4.394531 -1.671875 4.84375 -1.671875 C 5.226562 -1.671875 5.578125 -1.765625 5.890625 -1.953125 C 6.210938 -2.148438 6.535156 -2.429688 6.859375 -2.796875 Z M 6.859375 -4.4375 "/></g></g></g><g fill="#3b5abc" fill-opacity="1"><g transform="translate(644.331157, 557.620072)"><g><path d="M 4.0625 -0.359375 C 4.0625 -0.296875 4.039062 -0.234375 4 -0.171875 C 3.957031 -0.117188 3.882812 -0.0703125 3.78125 -0.03125 C 3.675781 0 3.535156 0.0195312 3.359375 0.03125 C 3.191406 0.0507812 2.972656 0.0625 2.703125 0.0625 C 2.441406 0.0625 2.222656 0.0507812 2.046875 0.03125 C 1.878906 0.0195312 1.742188 0 1.640625 -0.03125 C 1.535156 -0.0703125 1.460938 -0.117188 1.421875 -0.171875 C 1.378906 -0.234375 1.359375 -0.296875 1.359375 -0.359375 L 1.359375 -14.484375 C 1.359375 -14.554688 1.378906 -14.617188 1.421875 -14.671875 C 1.460938 -14.734375 1.535156 -14.785156 1.640625 -14.828125 C 1.742188 -14.867188 1.878906 -14.898438 2.046875 -14.921875 C 2.222656 -14.941406 2.441406 -14.953125 2.703125 -14.953125 C 2.972656 -14.953125 3.191406 -14.941406 3.359375 -14.921875 C 3.535156 -14.898438 3.675781 -14.867188 3.78125 -14.828125 C 3.882812 -14.785156 3.957031 -14.734375 4 -14.671875 C 4.039062 -14.617188 4.0625 -14.554688 4.0625 -14.484375 Z M 4.0625 -0.359375 "/></g></g></g><g fill="#3b5abc" fill-opacity="1"><g transform="translate(649.733523, 557.620072)"><g/></g></g><g fill="#3b5abc" fill-opacity="1"><g transform="translate(654.706279, 557.620072)"><g><path d="M 16.015625 -9.96875 C 16.015625 -9.882812 16.003906 -9.785156 15.984375 -9.671875 C 15.960938 -9.554688 15.921875 -9.394531 15.859375 -9.1875 L 13.3125 -0.515625 C 13.269531 -0.390625 13.21875 -0.289062 13.15625 -0.21875 C 13.101562 -0.144531 13.019531 -0.0859375 12.90625 -0.046875 C 12.789062 -0.00390625 12.625 0.0195312 12.40625 0.03125 C 12.1875 0.0507812 11.898438 0.0625 11.546875 0.0625 C 11.191406 0.0625 10.90625 0.0507812 10.6875 0.03125 C 10.46875 0.0195312 10.296875 -0.00390625 10.171875 -0.046875 C 10.046875 -0.0976562 9.953125 -0.160156 9.890625 -0.234375 C 9.835938 -0.304688 9.796875 -0.398438 9.765625 -0.515625 L 8.15625 -6.34375 L 8.125 -6.4375 L 8.109375 -6.34375 L 6.625 -0.515625 C 6.59375 -0.390625 6.550781 -0.289062 6.5 -0.21875 C 6.445312 -0.144531 6.351562 -0.0859375 6.21875 -0.046875 C 6.09375 -0.00390625 5.921875 0.0195312 5.703125 0.03125 C 5.484375 0.0507812 5.195312 0.0625 4.84375 0.0625 C 4.488281 0.0625 4.203125 0.0507812 3.984375 0.03125 C 3.765625 0.0195312 3.59375 -0.00390625 3.46875 -0.046875 C 3.34375 -0.0976562 3.25 -0.160156 3.1875 -0.234375 C 3.132812 -0.304688 3.09375 -0.398438 3.0625 -0.515625 L 0.53125 -9.1875 C 0.46875 -9.394531 0.425781 -9.554688 0.40625 -9.671875 C 0.382812 -9.785156 0.375 -9.882812 0.375 -9.96875 C 0.375 -10.039062 0.394531 -10.101562 0.4375 -10.15625 C 0.476562 -10.207031 0.550781 -10.25 0.65625 -10.28125 C 0.757812 -10.3125 0.894531 -10.332031 1.0625 -10.34375 C 1.238281 -10.363281 1.460938 -10.375 1.734375 -10.375 C 2.015625 -10.375 2.242188 -10.363281 2.421875 -10.34375 C 2.609375 -10.332031 2.75 -10.3125 2.84375 -10.28125 C 2.945312 -10.25 3.015625 -10.203125 3.046875 -10.140625 C 3.085938 -10.078125 3.117188 -10.003906 3.140625 -9.921875 L 5.046875 -2.875 L 5.078125 -2.75 L 5.09375 -2.875 L 6.875 -9.921875 C 6.894531 -10.003906 6.925781 -10.078125 6.96875 -10.140625 C 7.019531 -10.203125 7.09375 -10.25 7.1875 -10.28125 C 7.28125 -10.3125 7.410156 -10.332031 7.578125 -10.34375 C 7.742188 -10.363281 7.960938 -10.375 8.234375 -10.375 C 8.492188 -10.375 8.707031 -10.363281 8.875 -10.34375 C 9.039062 -10.332031 9.171875 -10.3125 9.265625 -10.28125 C 9.359375 -10.25 9.425781 -10.203125 9.46875 -10.140625 C 9.507812 -10.085938 9.539062 -10.023438 9.5625 -9.953125 L 11.46875 -2.875 L 11.5 -2.75 L 11.53125 -2.875 L 13.359375 -9.921875 C 13.367188 -10.003906 13.394531 -10.078125 13.4375 -10.140625 C 13.476562 -10.203125 13.546875 -10.25 13.640625 -10.28125 C 13.742188 -10.3125 13.878906 -10.332031 14.046875 -10.34375 C 14.222656 -10.363281 14.445312 -10.375 14.71875 -10.375 C 14.976562 -10.375 15.191406 -10.363281 15.359375 -10.34375 C 15.535156 -10.332031 15.671875 -10.3125 15.765625 -10.28125 C 15.859375 -10.25 15.921875 -10.207031 15.953125 -10.15625 C 15.992188 -10.101562 16.015625 -10.039062 16.015625 -9.96875 Z M 16.015625 -9.96875 "/></g></g></g><g fill="#3b5abc" fill-opacity="1"><g transform="translate(671.095957, 557.620072)"><g><path d="M 11.046875 -5.25 C 11.046875 -4.4375 10.9375 -3.691406 10.71875 -3.015625 C 10.507812 -2.347656 10.1875 -1.769531 9.75 -1.28125 C 9.3125 -0.789062 8.757812 -0.410156 8.09375 -0.140625 C 7.4375 0.117188 6.671875 0.25 5.796875 0.25 C 4.941406 0.25 4.195312 0.128906 3.5625 -0.109375 C 2.9375 -0.347656 2.414062 -0.691406 2 -1.140625 C 1.582031 -1.585938 1.273438 -2.140625 1.078125 -2.796875 C 0.878906 -3.460938 0.78125 -4.21875 0.78125 -5.0625 C 0.78125 -5.875 0.882812 -6.617188 1.09375 -7.296875 C 1.3125 -7.972656 1.640625 -8.550781 2.078125 -9.03125 C 2.515625 -9.519531 3.0625 -9.894531 3.71875 -10.15625 C 4.375 -10.425781 5.144531 -10.5625 6.03125 -10.5625 C 6.882812 -10.5625 7.625 -10.441406 8.25 -10.203125 C 8.882812 -9.972656 9.40625 -9.632812 9.8125 -9.1875 C 10.226562 -8.738281 10.535156 -8.179688 10.734375 -7.515625 C 10.941406 -6.859375 11.046875 -6.101562 11.046875 -5.25 Z M 8.265625 -5.140625 C 8.265625 -5.617188 8.222656 -6.054688 8.140625 -6.453125 C 8.066406 -6.847656 7.941406 -7.191406 7.765625 -7.484375 C 7.585938 -7.773438 7.347656 -8.003906 7.046875 -8.171875 C 6.753906 -8.335938 6.382812 -8.421875 5.9375 -8.421875 C 5.53125 -8.421875 5.175781 -8.347656 4.875 -8.203125 C 4.570312 -8.054688 4.320312 -7.84375 4.125 -7.5625 C 3.9375 -7.28125 3.796875 -6.9375 3.703125 -6.53125 C 3.609375 -6.132812 3.5625 -5.679688 3.5625 -5.171875 C 3.5625 -4.703125 3.597656 -4.269531 3.671875 -3.875 C 3.753906 -3.476562 3.878906 -3.128906 4.046875 -2.828125 C 4.222656 -2.535156 4.460938 -2.304688 4.765625 -2.140625 C 5.066406 -1.984375 5.441406 -1.90625 5.890625 -1.90625 C 6.296875 -1.90625 6.648438 -1.976562 6.953125 -2.125 C 7.253906 -2.28125 7.5 -2.492188 7.6875 -2.765625 C 7.882812 -3.046875 8.03125 -3.382812 8.125 -3.78125 C 8.21875 -4.1875 8.265625 -4.640625 8.265625 -5.140625 Z M 8.265625 -5.140625 "/></g></g></g><g fill="#3b5abc" fill-opacity="1"><g transform="translate(682.920999, 557.620072)"><g><path d="M 7.515625 -9.0625 C 7.515625 -8.800781 7.503906 -8.585938 7.484375 -8.421875 C 7.472656 -8.253906 7.453125 -8.125 7.421875 -8.03125 C 7.390625 -7.9375 7.347656 -7.867188 7.296875 -7.828125 C 7.253906 -7.796875 7.203125 -7.78125 7.140625 -7.78125 C 7.078125 -7.78125 7.007812 -7.789062 6.9375 -7.8125 C 6.863281 -7.84375 6.78125 -7.875 6.6875 -7.90625 C 6.601562 -7.9375 6.503906 -7.960938 6.390625 -7.984375 C 6.285156 -8.015625 6.171875 -8.03125 6.046875 -8.03125 C 5.898438 -8.03125 5.75 -8 5.59375 -7.9375 C 5.445312 -7.875 5.289062 -7.773438 5.125 -7.640625 C 4.96875 -7.515625 4.800781 -7.34375 4.625 -7.125 C 4.445312 -6.914062 4.257812 -6.65625 4.0625 -6.34375 L 4.0625 -0.359375 C 4.0625 -0.296875 4.039062 -0.234375 4 -0.171875 C 3.957031 -0.117188 3.882812 -0.0703125 3.78125 -0.03125 C 3.675781 0 3.535156 0.0195312 3.359375 0.03125 C 3.191406 0.0507812 2.972656 0.0625 2.703125 0.0625 C 2.441406 0.0625 2.222656 0.0507812 2.046875 0.03125 C 1.878906 0.0195312 1.742188 0 1.640625 -0.03125 C 1.535156 -0.0703125 1.460938 -0.117188 1.421875 -0.171875 C 1.378906 -0.234375 1.359375 -0.296875 1.359375 -0.359375 L 1.359375 -9.953125 C 1.359375 -10.023438 1.375 -10.085938 1.40625 -10.140625 C 1.445312 -10.191406 1.507812 -10.234375 1.59375 -10.265625 C 1.6875 -10.304688 1.804688 -10.332031 1.953125 -10.34375 C 2.109375 -10.363281 2.296875 -10.375 2.515625 -10.375 C 2.742188 -10.375 2.929688 -10.363281 3.078125 -10.34375 C 3.234375 -10.332031 3.351562 -10.304688 3.4375 -10.265625 C 3.519531 -10.234375 3.578125 -10.191406 3.609375 -10.140625 C 3.640625 -10.085938 3.65625 -10.023438 3.65625 -9.953125 L 3.65625 -8.75 C 3.914062 -9.113281 4.15625 -9.410156 4.375 -9.640625 C 4.59375 -9.867188 4.800781 -10.050781 5 -10.1875 C 5.207031 -10.332031 5.410156 -10.429688 5.609375 -10.484375 C 5.804688 -10.535156 6.003906 -10.5625 6.203125 -10.5625 C 6.296875 -10.5625 6.394531 -10.554688 6.5 -10.546875 C 6.613281 -10.535156 6.726562 -10.515625 6.84375 -10.484375 C 6.957031 -10.460938 7.054688 -10.4375 7.140625 -10.40625 C 7.222656 -10.375 7.285156 -10.335938 7.328125 -10.296875 C 7.367188 -10.265625 7.394531 -10.226562 7.40625 -10.1875 C 7.425781 -10.144531 7.441406 -10.082031 7.453125 -10 C 7.472656 -9.925781 7.488281 -9.8125 7.5 -9.65625 C 7.507812 -9.507812 7.515625 -9.3125 7.515625 -9.0625 Z M 7.515625 -9.0625 "/></g></g></g><g fill="#3b5abc" fill-opacity="1"><g transform="translate(690.739922, 557.620072)"><g><path d="M 4.0625 -0.359375 C 4.0625 -0.296875 4.039062 -0.234375 4 -0.171875 C 3.957031 -0.117188 3.882812 -0.0703125 3.78125 -0.03125 C 3.675781 0 3.535156 0.0195312 3.359375 0.03125 C 3.191406 0.0507812 2.972656 0.0625 2.703125 0.0625 C 2.441406 0.0625 2.222656 0.0507812 2.046875 0.03125 C 1.878906 0.0195312 1.742188 0 1.640625 -0.03125 C 1.535156 -0.0703125 1.460938 -0.117188 1.421875 -0.171875 C 1.378906 -0.234375 1.359375 -0.296875 1.359375 -0.359375 L 1.359375 -14.484375 C 1.359375 -14.554688 1.378906 -14.617188 1.421875 -14.671875 C 1.460938 -14.734375 1.535156 -14.785156 1.640625 -14.828125 C 1.742188 -14.867188 1.878906 -14.898438 2.046875 -14.921875 C 2.222656 -14.941406 2.441406 -14.953125 2.703125 -14.953125 C 2.972656 -14.953125 3.191406 -14.941406 3.359375 -14.921875 C 3.535156 -14.898438 3.675781 -14.867188 3.78125 -14.828125 C 3.882812 -14.785156 3.957031 -14.734375 4 -14.671875 C 4.039062 -14.617188 4.0625 -14.554688 4.0625 -14.484375 Z M 4.0625 -0.359375 "/></g></g></g><g fill="#3b5abc" fill-opacity="1"><g transform="translate(696.142289, 557.620072)"><g><path d="M 10.4375 -0.359375 C 10.4375 -0.285156 10.414062 -0.222656 10.375 -0.171875 C 10.34375 -0.117188 10.285156 -0.0703125 10.203125 -0.03125 C 10.117188 0 10.003906 0.0195312 9.859375 0.03125 C 9.710938 0.0507812 9.53125 0.0625 9.3125 0.0625 C 9.082031 0.0625 8.894531 0.0507812 8.75 0.03125 C 8.613281 0.0195312 8.5 0 8.40625 -0.03125 C 8.3125 -0.0703125 8.242188 -0.117188 8.203125 -0.171875 C 8.171875 -0.222656 8.15625 -0.285156 8.15625 -0.359375 L 8.15625 -1.421875 C 7.65625 -0.898438 7.132812 -0.488281 6.59375 -0.1875 C 6.0625 0.101562 5.460938 0.25 4.796875 0.25 C 4.066406 0.25 3.445312 0.109375 2.9375 -0.171875 C 2.4375 -0.460938 2.023438 -0.847656 1.703125 -1.328125 C 1.390625 -1.804688 1.160156 -2.363281 1.015625 -3 C 0.878906 -3.644531 0.8125 -4.320312 0.8125 -5.03125 C 0.8125 -5.882812 0.898438 -6.648438 1.078125 -7.328125 C 1.265625 -8.003906 1.53125 -8.582031 1.875 -9.0625 C 2.226562 -9.539062 2.664062 -9.910156 3.1875 -10.171875 C 3.707031 -10.429688 4.3125 -10.5625 5 -10.5625 C 5.53125 -10.5625 6.015625 -10.453125 6.453125 -10.234375 C 6.890625 -10.015625 7.320312 -9.691406 7.75 -9.265625 L 7.75 -14.453125 C 7.75 -14.523438 7.769531 -14.585938 7.8125 -14.640625 C 7.851562 -14.703125 7.925781 -14.753906 8.03125 -14.796875 C 8.132812 -14.835938 8.269531 -14.867188 8.4375 -14.890625 C 8.613281 -14.910156 8.832031 -14.921875 9.09375 -14.921875 C 9.363281 -14.921875 9.582031 -14.910156 9.75 -14.890625 C 9.925781 -14.867188 10.0625 -14.835938 10.15625 -14.796875 C 10.257812 -14.753906 10.332031 -14.703125 10.375 -14.640625 C 10.414062 -14.585938 10.4375 -14.523438 10.4375 -14.453125 Z M 7.75 -6.765625 C 7.363281 -7.253906 6.992188 -7.625 6.640625 -7.875 C 6.285156 -8.132812 5.914062 -8.265625 5.53125 -8.265625 C 5.175781 -8.265625 4.875 -8.175781 4.625 -8 C 4.375 -7.832031 4.171875 -7.597656 4.015625 -7.296875 C 3.859375 -7.003906 3.742188 -6.675781 3.671875 -6.3125 C 3.597656 -5.957031 3.5625 -5.585938 3.5625 -5.203125 C 3.5625 -4.804688 3.59375 -4.414062 3.65625 -4.03125 C 3.71875 -3.65625 3.820312 -3.316406 3.96875 -3.015625 C 4.113281 -2.722656 4.304688 -2.488281 4.546875 -2.3125 C 4.796875 -2.132812 5.109375 -2.046875 5.484375 -2.046875 C 5.671875 -2.046875 5.847656 -2.070312 6.015625 -2.125 C 6.191406 -2.175781 6.367188 -2.257812 6.546875 -2.375 C 6.734375 -2.5 6.921875 -2.660156 7.109375 -2.859375 C 7.304688 -3.054688 7.519531 -3.300781 7.75 -3.59375 Z M 7.75 -6.765625 "/></g></g></g><g clip-path="url(#3f50f5529a)"><path fill="#3b5abc" d="M 706.617188 244.191406 L 381.078125 244.191406 C 336.191406 244.191406 299.980469 280.402344 299.980469 324.941406 L 299.980469 428.363281 C 299.980469 473.25 336.191406 509.460938 381.078125 509.460938 L 489.246094 509.460938 C 534.128906 509.460938 570.339844 473.25 570.339844 428.363281 L 516.316406 428.363281 C 516.316406 443.519531 504.398438 455.433594 489.246094 455.433594 L 381.078125 455.433594 C 366.386719 455.433594 354.007812 443.519531 354.007812 428.363281 L 354.007812 324.941406 C 354.007812 310.25 366.386719 297.871094 381.078125 297.871094 L 639.289062 297.871094 L 639.519531 298.21875 L 713.789062 298.21875 L 713.789062 478.6875 L 767.816406 565.800781 L 767.816406 298.21875 L 842.203125 298.21875 L 875.980469 244.191406 Z M 706.617188 244.191406 " fill-opacity="1" fill-rule="nonzero"/></g><g fill="#3b5abc" fill-opacity="1"><g transform="translate(783.557422, 490.999771)"><g><path d="M 31.875 -17.078125 L 19.203125 -17.078125 C 19.609375 -14.753906 20.414062 -13.15625 21.625 -12.28125 C 22.84375 -11.40625 24.816406 -10.96875 27.546875 -10.96875 C 32.703125 -10.96875 38.222656 -11.304688 44.109375 -11.984375 L 45.46875 -2.546875 C 40.769531 -0.171875 34.226562 1.015625 25.84375 1.015625 C 17.507812 1.015625 11.570312 -0.738281 8.03125 -4.25 C 4.488281 -7.757812 2.71875 -13.3125 2.71875 -20.90625 C 2.71875 -29.175781 4.457031 -35 7.9375 -38.375 C 11.425781 -41.75 17.304688 -43.4375 25.578125 -43.4375 C 33.003906 -43.4375 38.359375 -42.203125 41.640625 -39.734375 C 44.929688 -37.273438 46.609375 -33.519531 46.671875 -28.46875 C 46.722656 -24.507812 45.613281 -21.617188 43.34375 -19.796875 C 41.082031 -17.984375 37.257812 -17.078125 31.875 -17.078125 Z M 18.875 -25.078125 L 27.546875 -25.078125 C 29.296875 -25.078125 30.441406 -25.34375 30.984375 -25.875 C 31.523438 -26.414062 31.796875 -27.394531 31.796875 -28.8125 C 31.796875 -30.457031 31.367188 -31.5625 30.515625 -32.125 C 29.660156 -32.695312 28.160156 -32.984375 26.015625 -32.984375 C 23.347656 -33.035156 21.53125 -32.550781 20.5625 -31.53125 C 19.601562 -30.507812 19.039062 -28.359375 18.875 -25.078125 Z M 18.875 -25.078125 "/></g></g></g><g fill="#3b5abc" fill-opacity="1"><g transform="translate(832.51521, 490.999771)"><g><path d="M 40.71875 -11.984375 L 42.15625 -2.203125 C 37.789062 -0.0546875 31.957031 1.015625 24.65625 1.015625 C 16.601562 1.015625 10.929688 -0.640625 7.640625 -3.953125 C 4.359375 -7.265625 2.71875 -13 2.71875 -21.15625 C 2.71875 -29.320312 4.375 -35.078125 7.6875 -38.421875 C 11.007812 -41.765625 16.71875 -43.4375 24.8125 -43.4375 C 31.675781 -43.4375 37.234375 -42.472656 41.484375 -40.546875 L 39.953125 -30.9375 L 27.453125 -31.03125 C 24.171875 -31.03125 21.929688 -30.347656 20.734375 -28.984375 C 19.546875 -27.617188 18.953125 -25.007812 18.953125 -21.15625 C 18.953125 -17.3125 19.546875 -14.707031 20.734375 -13.34375 C 21.929688 -11.988281 24.171875 -11.3125 27.453125 -11.3125 C 32.378906 -11.3125 36.800781 -11.535156 40.71875 -11.984375 Z M 40.71875 -11.984375 "/></g></g></g><g fill="#3b5abc" fill-opacity="1"><g transform="translate(876.543215, 490.999771)"><g><path d="M 19.890625 -59.5 L 19.890625 -45.984375 C 19.890625 -42.753906 19.609375 -39.722656 19.046875 -36.890625 C 24.535156 -41.253906 30.054688 -43.4375 35.609375 -43.4375 C 39.640625 -43.4375 42.6875 -42.429688 44.75 -40.421875 C 46.820312 -38.410156 47.859375 -35.476562 47.859375 -31.625 L 47.859375 0 L 32.390625 0 L 32.390625 -26.78125 C 32.390625 -28.132812 32.132812 -29.066406 31.625 -29.578125 C 31.113281 -30.085938 30.207031 -30.34375 28.90625 -30.34375 C 26.46875 -30.34375 23.4375 -29.609375 19.8125 -28.140625 L 19.8125 0 L 4.328125 0 L 4.328125 -59.5 Z M 19.890625 -59.5 "/></g></g></g><g fill="#3b5abc" fill-opacity="1"><g transform="translate(928.475872, 490.999771)"><g><path d="M 16.65625 -42.25 L 17.9375 -36.046875 C 23.71875 -40.972656 29.609375 -43.4375 35.609375 -43.4375 C 39.640625 -43.4375 42.6875 -42.429688 44.75 -40.421875 C 46.820312 -38.410156 47.859375 -35.476562 47.859375 -31.625 L 47.859375 0 L 32.390625 0 L 32.390625 -26.78125 C 32.390625 -28.132812 32.132812 -29.066406 31.625 -29.578125 C 31.113281 -30.085938 30.207031 -30.34375 28.90625 -30.34375 C 26.46875 -30.34375 23.4375 -29.609375 19.8125 -28.140625 L 19.8125 0 L 4.328125 0 L 4.328125 -42.25 Z M 16.65625 -42.25 "/></g></g></g><g fill="#3b5abc" fill-opacity="1"><g transform="translate(980.408517, 490.999771)"><g><path d="M 25.5 -43.4375 C 33.832031 -43.4375 39.710938 -41.75 43.140625 -38.375 C 46.566406 -35 48.28125 -29.234375 48.28125 -21.078125 C 48.28125 -12.972656 46.566406 -7.265625 43.140625 -3.953125 C 39.710938 -0.640625 33.832031 1.015625 25.5 1.015625 C 17.164062 1.015625 11.285156 -0.640625 7.859375 -3.953125 C 4.429688 -7.265625 2.71875 -12.972656 2.71875 -21.078125 C 2.71875 -29.234375 4.445312 -35 7.90625 -38.375 C 11.363281 -41.75 17.226562 -43.4375 25.5 -43.4375 Z M 25.5 -32.5625 C 22.832031 -32.5625 21.070312 -31.804688 20.21875 -30.296875 C 19.375 -28.796875 18.953125 -25.722656 18.953125 -21.078125 C 18.953125 -16.484375 19.375 -13.453125 20.21875 -11.984375 C 21.070312 -10.515625 22.832031 -9.78125 25.5 -9.78125 C 28.101562 -9.78125 29.84375 -10.515625 30.71875 -11.984375 C 31.601562 -13.453125 32.046875 -16.484375 32.046875 -21.078125 C 32.046875 -25.722656 31.601562 -28.796875 30.71875 -30.296875 C 29.84375 -31.804688 28.101562 -32.5625 25.5 -32.5625 Z M 25.5 -32.5625 "/></g></g></g><g fill="#3b5abc" fill-opacity="1"><g transform="translate(1031.406225, 490.999771)"><g><path d="M 19.8125 -59.5 L 19.8125 -14.703125 C 19.8125 -12.265625 21.3125 -11.046875 24.3125 -11.046875 L 27.375 -11.046875 L 29.15625 -0.84375 C 26.882812 0.457031 23.085938 1.109375 17.765625 1.109375 C 13.628906 1.109375 10.367188 0.078125 7.984375 -1.984375 C 5.609375 -4.054688 4.421875 -6.9375 4.421875 -10.625 L 4.421875 -59.5 Z M 19.8125 -59.5 "/></g></g></g><g fill="#3b5abc" fill-opacity="1"><g transform="translate(1060.644917, 490.999771)"><g><path d="M 25.5 -43.4375 C 33.832031 -43.4375 39.710938 -41.75 43.140625 -38.375 C 46.566406 -35 48.28125 -29.234375 48.28125 -21.078125 C 48.28125 -12.972656 46.566406 -7.265625 43.140625 -3.953125 C 39.710938 -0.640625 33.832031 1.015625 25.5 1.015625 C 17.164062 1.015625 11.285156 -0.640625 7.859375 -3.953125 C 4.429688 -7.265625 2.71875 -12.972656 2.71875 -21.078125 C 2.71875 -29.234375 4.445312 -35 7.90625 -38.375 C 11.363281 -41.75 17.226562 -43.4375 25.5 -43.4375 Z M 25.5 -32.5625 C 22.832031 -32.5625 21.070312 -31.804688 20.21875 -30.296875 C 19.375 -28.796875 18.953125 -25.722656 18.953125 -21.078125 C 18.953125 -16.484375 19.375 -13.453125 20.21875 -11.984375 C 21.070312 -10.515625 22.832031 -9.78125 25.5 -9.78125 C 28.101562 -9.78125 29.84375 -10.515625 30.71875 -11.984375 C 31.601562 -13.453125 32.046875 -16.484375 32.046875 -21.078125 C 32.046875 -25.722656 31.601562 -28.796875 30.71875 -30.296875 C 29.84375 -31.804688 28.101562 -32.5625 25.5 -32.5625 Z M 25.5 -32.5625 "/></g></g></g><g fill="#3b5abc" fill-opacity="1"><g transform="translate(1111.642625, 490.999771)"><g><path d="M 48.953125 -36.125 L 44.109375 -35.4375 C 44.617188 -33.800781 44.875 -31.988281 44.875 -30 C 44.875 -25.070312 43.328125 -21.601562 40.234375 -19.59375 C 37.148438 -17.582031 31.757812 -16.578125 24.0625 -16.578125 C 21.332031 -16.578125 19.0625 -16.691406 17.25 -16.921875 C 16.625 -16.179688 16.507812 -15.300781 16.90625 -14.28125 C 17.3125 -13.257812 18.25 -12.664062 19.71875 -12.5 L 35.109375 -11.140625 C 39.691406 -10.742188 42.988281 -9.507812 45 -7.4375 C 47.019531 -5.363281 48.03125 -2.289062 48.03125 1.78125 C 48.03125 7.394531 46.3125 11.132812 42.875 13 C 39.445312 14.875 33.34375 15.8125 24.5625 15.8125 C 18.269531 15.8125 13.4375 15.382812 10.0625 14.53125 C 6.695312 13.6875 4.390625 12.425781 3.140625 10.75 C 1.898438 9.082031 1.28125 6.660156 1.28125 3.484375 C 1.28125 1.328125 1.773438 -0.441406 2.765625 -1.828125 C 3.753906 -3.210938 5.46875 -4.445312 7.90625 -5.53125 C 5.976562 -7.507812 5.253906 -9.875 5.734375 -12.625 C 6.210938 -15.375 7.585938 -17.34375 9.859375 -18.53125 C 5.328125 -20.457031 3.0625 -24.253906 3.0625 -29.921875 C 3.0625 -34.847656 4.632812 -38.332031 7.78125 -40.375 C 10.925781 -42.414062 16.378906 -43.4375 24.140625 -43.4375 C 28.835938 -43.4375 32.71875 -43.039062 35.78125 -42.25 L 49.71875 -42.25 Z M 24.0625 -25.5 C 26.550781 -25.5 28.25 -25.8125 29.15625 -26.4375 C 30.0625 -27.0625 30.515625 -28.25 30.515625 -30 C 30.515625 -31.757812 30.0625 -32.9375 29.15625 -33.53125 C 28.25 -34.125 26.550781 -34.421875 24.0625 -34.421875 C 21.507812 -34.421875 19.765625 -34.125 18.828125 -33.53125 C 17.890625 -32.9375 17.421875 -31.757812 17.421875 -30 C 17.421875 -28.25 17.890625 -27.0625 18.828125 -26.4375 C 19.765625 -25.8125 21.507812 -25.5 24.0625 -25.5 Z M 26.78125 -1.609375 L 17.84375 -2.375 C 16.488281 -1.351562 15.8125 -0.132812 15.8125 1.28125 C 15.8125 2.800781 16.363281 3.789062 17.46875 4.25 C 18.570312 4.707031 20.878906 4.9375 24.390625 4.9375 C 28.078125 4.9375 30.515625 4.722656 31.703125 4.296875 C 32.890625 3.867188 33.484375 2.972656 33.484375 1.609375 C 33.484375 0.421875 33.03125 -0.351562 32.125 -0.71875 C 31.21875 -1.09375 29.4375 -1.390625 26.78125 -1.609375 Z M 26.78125 -1.609375 "/></g></g></g><g fill="#3b5abc" fill-opacity="1"><g transform="translate(1162.045332, 490.999771)"><g><path d="M 49.390625 -42.25 L 35.28125 -0.421875 C 34.65625 1.503906 33.898438 3.316406 33.015625 5.015625 C 32.140625 6.710938 30.960938 8.46875 29.484375 10.28125 C 28.015625 12.09375 26.34375 13.507812 24.46875 14.53125 C 22.601562 15.550781 20.394531 16.375 17.84375 17 C 15.300781 17.625 12.46875 17.597656 9.34375 16.921875 L 8.25 8.328125 C 14.59375 6.910156 18.785156 4.132812 20.828125 0 L 18.109375 0 C 15.554688 0 13.910156 -1.21875 13.171875 -3.65625 L 0.171875 -42.25 L 16.578125 -42.25 L 22.859375 -17.078125 C 23.203125 -15.378906 23.601562 -12.972656 24.0625 -9.859375 L 24.984375 -9.859375 C 25.378906 -11.328125 25.945312 -13.734375 26.6875 -17.078125 L 32.984375 -42.25 Z M 49.390625 -42.25 "/></g></g></g></svg>